<svg version="1.1" xmlns="http://www.w3.org/2000/svg" width="512px" height="512px" transform="rotate(0) scale(1, 1)">
<path d="M0 0 C2.98413086 1.36010742 2.98413086 1.36010742 5.96484375 3.10546875 C7.08197754 3.75201416 8.19911133 4.39855957 9.35009766 5.06469727 C10.54602246 5.77208854 11.74182006 6.47969491 12.9375 7.1875 C14.18999118 7.91761771 15.44309324 8.64668842 16.69677734 9.37475586 C19.87291063 11.22252026 23.04143858 13.08290828 26.20806885 14.94689941 C28.88806663 16.52190816 31.57482363 18.0852318 34.26171875 19.6484375 C38.17333774 21.92499329 42.0819243 24.20661521 45.98828125 26.4921875 C52.41567491 30.24830503 58.86287148 33.96972799 65.3125 37.6875 C66.39281494 38.31108398 67.47312988 38.93466797 68.58618164 39.57714844 C73.65957595 42.50444796 78.73749508 45.42307857 83.828125 48.3203125 C84.71717529 48.82860596 85.60622559 49.33689941 86.5222168 49.8605957 C88.17220708 50.80365118 89.82459003 51.74253707 91.47973633 52.67651367 C96.88741725 55.77483449 96.88741725 55.77483449 98 58 C97.99247513 59.59403303 97.91713221 61.18796899 97.80859375 62.77832031 C94.57395872 89.35907292 94.57395872 89.35907292 101.41601562 113.74755859 C106.75803936 118.95994429 114.0063428 121.3570227 121.15332031 122.97241211 C125.0123125 124.36542224 126.50649868 125.70059995 129 129 C129.74884514 132.67703542 129.68305938 136.30294422 129.64697266 140.04492188 C129.65573425 141.15928116 129.66449585 142.27364044 129.67352295 143.42176819 C129.69552542 147.10449179 129.68095969 150.78601424 129.6640625 154.46875 C129.66743035 157.02795645 129.6722827 159.58716134 129.67855835 162.1463623 C129.68593092 167.50969142 129.67568835 172.87259025 129.65185547 178.23583984 C129.62464504 184.43057163 129.63345981 190.62448056 129.6609875 196.81919241 C129.68643793 202.78598964 129.68371066 208.75253187 129.66907883 214.71937561 C129.66574184 217.25513321 129.6698421 219.79091179 129.68147659 222.3266449 C129.69416621 225.87002297 129.67483137 229.41181806 129.64697266 232.95507812 C129.65709381 234.00458145 129.66721497 235.05408478 129.67764282 236.13539124 C129.57376198 243.26217334 129.57376198 243.26217334 126.58683777 247.10319519 C124.42637316 248.68736089 122.36185514 250.17687566 120.01171875 251.45703125 C119.30595703 251.84697266 118.60019531 252.23691406 117.87304688 252.63867188 C117.15181641 253.02603516 116.43058594 253.41339844 115.6875 253.8125 C114.94693359 254.21919922 114.20636719 254.62589844 113.44335938 255.04492188 C111.63310452 256.03764228 109.81712245 257.01990693 108 258 C108 258.66 108 259.32 108 260 C109.912712 261.2400457 111.88212578 262.39336867 113.875 263.5 C119.81283422 266.81283422 119.81283422 266.81283422 122 269 C122.27123547 271.07218552 122.27123547 271.07218552 122.30107117 273.67987061 C122.31682693 274.66681915 122.3325827 275.6537677 122.34881592 276.67062378 C122.35576477 277.7573941 122.36271362 278.84416443 122.36987305 279.96386719 C122.38462173 281.10544281 122.39937042 282.24701843 122.41456604 283.42318726 C122.45921873 287.2144072 122.48734642 291.00547281 122.51171875 294.796875 C122.52111795 296.0893943 122.53051716 297.3819136 122.54020119 298.71360016 C122.57801307 304.1454678 122.61191252 309.57728844 122.63057232 315.00925827 C122.65736978 322.79120131 122.71488233 330.57147992 122.81633729 338.35282016 C122.89355988 344.48565577 122.92133005 350.61784344 122.93177223 356.75113678 C122.94337559 359.35874867 122.97027991 361.96633865 123.01270103 364.57363129 C123.06856036 368.22320953 123.06785179 371.86867065 123.0534668 375.51855469 C123.09728989 377.13656479 123.09728989 377.13656479 123.14199829 378.78726196 C123.03227751 385.96352956 123.03227751 385.96352956 120.02894115 388.97906494 C117.74378432 390.52333871 115.4776975 391.79468501 113 393 C112.03118896 393.57556641 111.06237793 394.15113281 110.06420898 394.74414062 C108.79299194 395.44313477 108.79299194 395.44313477 107.49609375 396.15625 C106.03345093 396.96630493 106.03345093 396.96630493 104.54125977 397.79272461 C103.51701904 398.35612549 102.49277832 398.91952637 101.4375 399.5 C91.92831002 404.77757586 82.49487529 410.16593426 73.11328125 415.66674805 C64.47671504 420.72997743 55.80951983 425.73865145 47.12011719 430.71069336 C42.45170764 433.39008742 37.80970574 436.08180323 33.2734375 438.98046875 C32.58967041 439.41319092 31.90590332 439.84591309 31.20141602 440.29174805 C29.47388524 441.39676935 27.76147964 442.5253452 26.05078125 443.65625 C22.00732529 445.43723444 20.25586727 445.21659407 16 444 C12.3960047 442.30957353 8.98981789 440.3334468 5.5625 438.3125 C4.05393433 437.44117432 4.05393433 437.44117432 2.51489258 436.55224609 C-0.66343233 434.7127471 -3.83213588 432.85744484 -7 431 C-8.97615135 429.84955388 -10.95270545 428.69979927 -12.9296875 427.55078125 C-16.90058565 425.24023037 -20.86743244 422.92290368 -24.83203125 420.6015625 C-31.20565202 416.87369167 -37.60135452 413.18470434 -44 409.5 C-52.86409608 404.39196759 -61.72037314 399.27095851 -70.5625 394.125 C-71.59826172 393.52365234 -72.63402344 392.92230469 -73.70117188 392.30273438 C-74.64669922 391.75166016 -75.59222656 391.20058594 -76.56640625 390.6328125 C-77.40115479 390.14699707 -78.23590332 389.66118164 -79.09594727 389.16064453 C-81 388 -81 388 -82 387 C-82.10664714 385.478512 -82.14406419 383.95211503 -82.15390015 382.42692566 C-82.16250061 381.43846146 -82.17110107 380.44999725 -82.17996216 379.43157959 C-82.18422211 378.3380719 -82.18848206 377.24456421 -82.19287109 376.11791992 C-82.20104858 374.97327774 -82.20922607 373.82863556 -82.21765137 372.64930725 C-82.24256308 368.84303318 -82.25903544 365.03679651 -82.2734375 361.23046875 C-82.27876118 359.93453608 -82.28408485 358.6386034 -82.28956985 357.30340004 C-82.3108116 351.85868903 -82.32994154 346.41399028 -82.34119225 340.96924877 C-82.35743299 333.16021436 -82.39060607 325.35167747 -82.44759309 317.54283065 C-82.49093483 311.39455218 -82.50693455 305.24646916 -82.51332474 299.09804726 C-82.52006017 296.48048676 -82.53534104 293.86293414 -82.55921555 291.24547386 C-82.59068601 287.58668192 -82.59093042 283.92915432 -82.58349609 280.27026367 C-82.59990143 279.18282867 -82.61630676 278.09539368 -82.63320923 276.9750061 C-82.57186247 269.62293889 -82.57186247 269.62293889 -79.59080505 266.37562561 C-78.73583939 265.92166916 -77.88087372 265.46771271 -77 265 C-76.32799561 264.57750977 -75.65599121 264.15501953 -74.96362305 263.71972656 C-74.31949463 263.36362305 -73.67536621 263.00751953 -73.01171875 262.640625 C-72.30595703 262.24746094 -71.60019531 261.85429687 -70.87304688 261.44921875 C-69.79120117 260.85560547 -69.79120117 260.85560547 -68.6875 260.25 C-67.94693359 259.83878906 -67.20636719 259.42757813 -66.44335938 259.00390625 C-64.63120373 257.99845215 -62.8159158 256.998647 -61 256 C-64.8420647 252.79827942 -68.69123788 250.44528362 -73.109375 248.1484375 C-75 247 -75 247 -76 245 C-75.9772975 243.41596402 -75.88591978 241.83268268 -75.76098633 240.25341797 C-72.34728609 213.41661973 -72.34728609 213.41661973 -79.77490234 188.99169922 C-86.72534106 182.43587427 -96.00005506 179.55388262 -105 177 C-106.61223058 175.38776942 -106.15315785 173.63420037 -106.18081665 171.40242004 C-106.19519775 170.40843201 -106.20957886 169.41444397 -106.22439575 168.39033508 C-106.23493988 167.29061874 -106.24548401 166.1909024 -106.25634766 165.05786133 C-106.27095032 163.90667816 -106.28555298 162.755495 -106.30059814 161.56942749 C-106.42664247 150.94067546 -106.49676599 140.31109039 -106.54844093 129.68172169 C-106.5873374 121.82368858 -106.65564906 113.96709055 -106.76298869 106.10968763 C-106.8358994 100.58607578 -106.87428469 95.06285575 -106.88746679 89.5387823 C-106.89632687 86.23902857 -106.92513033 82.94145471 -106.98213577 79.6421299 C-107.04270489 75.95660171 -107.04687815 72.27503365 -107.03759766 68.58911133 C-107.06838409 67.49951614 -107.09917053 66.40992096 -107.13088989 65.28730774 C-107.03152829 58.03796617 -107.03152829 58.03796617 -104.02346516 55.01112938 C-101.74006413 53.46872516 -99.4772544 52.20026074 -97 51 C-96.0917749 50.45472656 -95.1835498 49.90945312 -94.24780273 49.34765625 C-93.10226929 48.71150391 -93.10226929 48.71150391 -91.93359375 48.0625 C-91.04889404 47.56766113 -90.16419434 47.07282227 -89.25268555 46.56298828 C-88.32367432 46.04720215 -87.39466309 45.53141602 -86.4375 45 C-78.31054435 40.4474333 -70.22564121 35.83265496 -62.1875 31.125 C-52.57000116 25.49362869 -42.93309353 19.89747338 -33.26123047 14.35986328 C-28.40478893 11.57347718 -23.57617948 8.76487454 -18.828125 5.796875 C-18.05525146 5.31959961 -17.28237793 4.84232422 -16.48608398 4.35058594 C-15.09254347 3.48469061 -13.70818061 2.60373967 -12.33618164 1.70410156 C-7.74266794 -1.1336934 -5.1905511 -1.12444604 0 0 Z M-9.8203125 11.5703125 C-10.81780518 12.12960449 -11.81529785 12.68889648 -12.84301758 13.26513672 C-14.46759888 14.18576904 -14.46759888 14.18576904 -16.125 15.125 C-17.8104895 16.07463623 -17.8104895 16.07463623 -19.5300293 17.04345703 C-27.97774937 21.81185341 -36.36619642 26.68023583 -44.73339844 31.58837891 C-53.90824189 36.96616546 -63.14026533 42.24094508 -72.38598633 47.49560547 C-75.59521798 49.32258204 -78.79876258 51.15905888 -82 53 C-83.00321289 53.57105469 -84.00642578 54.14210937 -85.04003906 54.73046875 C-85.9575293 55.26285156 -86.87501953 55.79523438 -87.8203125 56.34375 C-88.63000488 56.80974609 -89.43969727 57.27574219 -90.27392578 57.75585938 C-91.12833252 58.37170898 -91.12833252 58.37170898 -92 59 C-92 59.66 -92 60.32 -92 61 C-91.49662109 61.27674561 -90.99324219 61.55349121 -90.47460938 61.83862305 C-88.14844214 63.11924101 -85.82421943 64.40335055 -83.5 65.6875 C-82.70851563 66.12255859 -81.91703125 66.55761719 -81.1015625 67.00585938 C-80.31523438 67.44091797 -79.52890625 67.87597656 -78.71875 68.32421875 C-77.92984375 68.76040527 -77.1409375 69.1965918 -76.328125 69.64599609 C-73.4123516 71.34176783 -70.64834457 73.23048153 -67.90429688 75.19067383 C-65.20142692 76.33939356 -63.78280284 75.87426282 -61 75 C-59.04129915 74.03374458 -57.12026308 72.98944491 -55.23046875 71.89453125 C-54.10688965 71.24798584 -52.98331055 70.60144043 -51.82568359 69.93530273 C-50.61285954 69.22786671 -49.40013416 68.52026149 -48.1875 67.8125 C-46.92562747 67.08283592 -45.66341571 66.35375823 -44.40087891 65.62524414 C-40.59512132 63.4261745 -36.79714354 61.21389905 -33 59 C-31.93056152 58.37770508 -30.86112305 57.75541016 -29.75927734 57.11425781 C-24.85560003 54.26043303 -19.95580972 51.40005215 -15.05859375 48.53515625 C-8.36572284 44.62388188 -1.65312951 40.74700504 5.0625 36.875 C6.15127441 36.247146 7.24004883 35.61929199 8.36181641 34.97241211 C13.5689019 31.97165644 18.7792574 28.97693408 24 26 C21.13763826 22.91022694 18.31270096 20.82919392 14.6484375 18.765625 C13.63265625 18.19199219 12.616875 17.61835937 11.5703125 17.02734375 C10.51585938 16.44082031 9.46140625 15.85429688 8.375 15.25 C7.3128125 14.64800781 6.250625 14.04601562 5.15625 13.42578125 C-2.23147855 8.8625971 -2.23147855 8.8625971 -9.8203125 11.5703125 Z M26.93359375 33.75390625 C25.90427734 34.35332031 24.87496094 34.95273438 23.81445312 35.5703125 C22.70005859 36.22773437 21.58566406 36.88515625 20.4375 37.5625 C19.26667653 38.24677945 18.09544571 38.93036236 16.92382812 39.61328125 C14.4878284 41.03391905 12.05361724 42.45755226 9.62060547 43.88330078 C4.09667801 47.11702136 -1.45284547 50.30635065 -7 53.5 C-9.15116947 54.74066386 -11.30221046 55.98155048 -13.453125 57.22265625 C-14.52369141 57.84027832 -15.59425781 58.45790039 -16.69726562 59.09423828 C-19.5259145 60.72644061 -22.35432981 62.3590466 -25.18258667 63.9919281 C-36.77509846 70.68478168 -48.36950884 77.37332481 -60 84 C-60 92.25 -60 100.5 -60 109 C-55.05 111.64 -50.1 114.28 -45 117 C-44.67 108.75 -44.34 100.5 -44 92 C-42.35 91.34 -40.7 90.68 -39 90 C-37.08344321 88.974849 -35.1849447 87.91556831 -33.30078125 86.83203125 C-31.63088135 85.87478149 -31.63088135 85.87478149 -29.92724609 84.89819336 C-28.72228318 84.20304466 -27.5173691 83.5078113 -26.3125 82.8125 C-25.05565201 82.09031382 -23.79865088 81.3683941 -22.54150391 80.64672852 C-19.31362852 78.79256933 -16.08810651 76.93436047 -12.86346436 75.07458496 C-10.00474796 73.42607817 -7.14481546 71.77968312 -4.28515625 70.1328125 C1.04490782 67.06125016 6.37226694 63.98502756 11.69873047 60.90722656 C17.52702546 57.54007374 23.3573174 54.17638302 29.1875 50.8125 C30.26854004 50.18851318 31.34958008 49.56452637 32.46337891 48.92163086 C37.63602144 45.93672004 42.81160786 42.95745691 48 40 C44.45942219 35.84366953 39.93751629 33.21869977 35 31 C31.39220679 31 30.0278402 31.93787925 26.93359375 33.75390625 Z M50.49609375 47.97265625 C49.37638184 48.61726807 48.25666992 49.26187988 47.10302734 49.92602539 C45.88112001 50.63807226 44.65927933 51.35023351 43.4375 52.0625 C42.1717313 52.79413488 40.90561298 53.5251652 39.63916016 54.25561523 C37.02971588 55.76199983 34.42241531 57.27199572 31.81689453 58.78515625 C28.30801645 60.82260496 24.79365882 62.85040733 21.27734375 64.875 C15.94932066 67.94299209 10.6246586 71.01674896 5.30126953 74.09277344 C-0.52702546 77.45992626 -6.3573174 80.82361698 -12.1875 84.1875 C-13.26854004 84.81148682 -14.34958008 85.43547363 -15.46337891 86.07836914 C-20.63602144 89.06327996 -25.81160786 92.04254309 -31 95 C-17.58934881 106.48474838 -17.58934881 106.48474838 -1.3515625 110.71484375 C1.68949635 109.18680554 4.2403274 107.52499662 6.94189453 105.47753906 C10.20826987 103.1325683 13.70930612 101.22136398 17.2019043 99.23583984 C20.32460051 97.45751625 23.42165187 95.64029035 26.515625 93.8125 C32.98645738 89.99968044 39.49012588 86.24565438 46 82.5 C48.15509697 81.25676877 50.31004479 80.01327893 52.46484375 78.76953125 C56.37734961 76.51147667 60.29208152 74.25738763 64.2093811 72.00765991 C66.99620828 70.40519132 69.77900241 68.79574305 72.5625 67.1875 C73.59826172 66.59453125 74.63402344 66.0015625 75.70117188 65.390625 C77.11946289 64.56884766 77.11946289 64.56884766 78.56640625 63.73046875 C79.81852905 63.00960083 79.81852905 63.00960083 81.09594727 62.27416992 C83.13896085 61.13426512 83.13896085 61.13426512 84 59 C80.49915662 56.99799679 76.9936615 55.00442931 73.48364258 53.01855469 C72.29027612 52.34182166 71.0982054 51.66279837 69.9074707 50.98144531 C68.19564788 50.00244535 66.47874382 49.03234701 64.76171875 48.0625 C63.73006592 47.47597656 62.69841309 46.88945313 61.63549805 46.28515625 C56.93485395 43.9929663 54.76167602 45.50048263 50.49609375 47.97265625 Z M-98 68 C-98.55805514 81.05513698 -98.98343343 94.10740859 -99.24349213 107.17207527 C-99.36837838 113.24060469 -99.53738019 119.30093779 -99.81054688 125.36474609 C-102.45662947 150.40053549 -102.45662947 150.40053549 -95.77435303 173.49087524 C-90.28395491 178.67004317 -84.07040196 181.12717883 -76.88342285 183.14282227 C-73.06088257 184.27917881 -70.23217842 185.97264146 -66.8828125 188.12109375 C-64.96388864 189.22716468 -63.04462716 190.33265012 -61.125 191.4375 C-58.95832929 192.6861909 -56.79166275 193.93488904 -54.625 195.18359375 C-53.5421875 195.80733887 -52.459375 196.43108398 -51.34375 197.07373047 C-46.73222575 199.73034016 -42.1214786 202.38829557 -37.51123047 205.04711914 C-35.33335118 206.30312898 -33.15530494 207.55884939 -30.97705078 208.81420898 C-29.47634033 209.67961304 -29.47634033 209.67961304 -27.9453125 210.5625 C-26.4897998 211.40167969 -26.4897998 211.40167969 -25.00488281 212.2578125 C-20.7557414 214.7214031 -16.52514078 217.21644012 -12.29638672 219.71484375 C-10.29315069 221.08139434 -10.29315069 221.08139434 -9 221 C-8.79145535 207.80478257 -8.63154747 194.60995718 -8.53369045 181.41342735 C-8.48672272 175.28560552 -8.42302156 169.15891115 -8.32104492 163.03173828 C-8.22324203 157.11832231 -8.16943924 151.20599048 -8.14610481 145.29182816 C-8.12947695 143.03583326 -8.0970048 140.77989765 -8.04842949 138.52436447 C-7.98305677 135.36308478 -7.97409828 132.20628063 -7.97827148 129.04443359 C-7.92973526 127.64612808 -7.92973526 127.64612808 -7.88021851 126.21957397 C-7.91857991 123.53287038 -8.0570031 121.5194188 -9 119 C-11.7048567 116.37669405 -14.66596883 114.71243244 -18 113 C-19.4396122 112.15422233 -20.87638356 111.30356486 -22.30859375 110.4453125 C-23.6828153 109.66818438 -25.05910529 108.89470189 -26.4375 108.125 C-27.14326172 107.7228125 -27.84902344 107.320625 -28.57617188 106.90625 C-32.07150006 104.75275579 -32.07150006 104.75275579 -36 104 C-36.33 111.92 -36.66 119.84 -37 128 C-41.43448257 129.10862064 -41.78649572 128.96597352 -45.51953125 126.8671875 C-46.80633789 126.15175781 -46.80633789 126.15175781 -48.11914062 125.421875 C-49.45235352 124.65617187 -49.45235352 124.65617187 -50.8125 123.875 C-51.68970703 123.38773438 -52.56691406 122.90046875 -53.47070312 122.3984375 C-55.19904363 121.42632676 -56.91319336 120.42850317 -58.61132812 119.40454102 C-60.92486091 117.98487196 -60.92486091 117.98487196 -63.20117188 117.01538086 C-65.43784311 115.86922735 -66.60415012 115.10482111 -68 113 C-68.57630283 108.2511073 -68.15324043 103.57622396 -67.875 98.8125 C-67.46757133 89.87370692 -67.46757133 89.87370692 -70.52392578 81.76367188 C-74.45584319 78.36277514 -79.02077712 76.51270514 -83.8828125 74.79833984 C-86.81573619 73.69240575 -89.32205908 72.08657531 -91.9375 70.375 C-94.77105034 68.48422426 -94.77105034 68.48422426 -98 68 Z M83.71484375 70.3515625 C82.80436279 70.8657373 81.89388184 71.37991211 80.95581055 71.90966797 C79.95976807 72.47572754 78.96372559 73.04178711 77.9375 73.625 C76.90471924 74.21039551 75.87193848 74.79579102 74.80786133 75.39892578 C66.57550112 80.07735076 58.38782226 84.82993951 50.21679688 89.61450195 C41.61715357 94.64930608 32.9870002 99.62997524 24.3425293 104.58740234 C22.36522124 105.72443005 20.40086822 106.88438568 18.4523468 108.07006836 C15.95212313 109.46774392 13.78813403 110.50666269 11.1541748 111.5116272 C6.82839974 113.32871971 2.98048228 115.28436875 0 119 C-2.72115065 126.26445128 -1.73981337 134.58568023 -1.46484375 142.19140625 C-1.43684152 144.46533697 -1.41550151 146.73935864 -1.40052795 149.01341248 C-1.34344402 154.97861751 -1.19629882 160.93828076 -1.02996826 166.90130615 C-0.87608957 172.99398821 -0.80792468 179.08757256 -0.73242188 185.18164062 C-0.5718911 197.12351953 -0.31614212 209.06129778 0 221 C2.21546274 219.90226139 4.42979646 218.80233853 6.64355469 217.70117188 C7.57347733 217.2408255 7.57347733 217.2408255 8.52218628 216.7711792 C14.24378077 213.92142206 19.75631402 210.76641274 25.25 207.5 C27.33816122 206.27018713 29.42671692 205.04104386 31.515625 203.8125 C32.58103516 203.18472656 33.64644531 202.55695313 34.74414062 201.91015625 C40.14454597 198.74183206 45.57287424 195.62225527 51 192.5 C59.86433004 187.39237772 68.72037558 182.27095709 77.5625 177.125 C78.59826172 176.52365234 79.63402344 175.92230469 80.70117188 175.30273438 C81.64669922 174.75166016 82.59222656 174.20058594 83.56640625 173.6328125 C84.40115479 173.14699707 85.23590332 172.66118164 86.09594727 172.16064453 C87.93846097 171.14011742 87.93846097 171.14011742 89 170 C89.09536242 166.83387337 89.12550636 163.68959372 89.11352539 160.52319336 C89.11367142 159.52818314 89.11381744 158.53317291 89.1139679 157.50801086 C89.11326831 154.20193338 89.10547379 150.89591146 89.09765625 147.58984375 C89.09579223 145.30440807 89.09436825 143.01897199 89.09336853 140.73353577 C89.08954207 134.70501613 89.0797107 128.67652041 89.06866455 122.64801025 C89.05845317 116.50167159 89.0538715 110.35532907 89.04882812 104.20898438 C89.03808854 92.13931238 89.0210106 80.06965818 89 68 C87.07655268 68 85.33984187 69.43269668 83.71484375 70.3515625 Z M98 121 C98 127.27 98 133.54 98 140 C100.454375 138.741875 102.90875 137.48375 105.4375 136.1875 C106.21150146 135.79715576 106.98550293 135.40681152 107.78295898 135.00463867 C111.95157723 132.98065077 111.95157723 132.98065077 114 129 C111.71125827 127.66141476 109.41930344 126.32898986 107.125 125 C106.47402344 124.6184375 105.82304687 124.236875 105.15234375 123.84375 C101.79649799 121.72448844 101.79649799 121.72448844 98 121 Z M100.05273438 147.66455078 C96.15574492 152.09825691 96.5115055 157.21688139 96.75 162.875 C96.85892578 163.96868896 96.96785156 165.06237793 97.08007812 166.18920898 C97.35238039 169.28759934 97.54425864 171.9343799 97 175 C94.44504977 177.90630637 91.46408213 179.36131861 88 181 C86.67178123 181.75340807 85.34730775 182.51347149 84.02734375 183.28125 C82.66570636 184.02385547 81.30234997 184.76331565 79.9375 185.5 C72.49674194 189.57702966 65.13899753 193.78364484 57.8125 198.0625 C56.86431396 198.61550781 55.91612793 199.16851562 54.93920898 199.73828125 C53.06499941 200.83497331 51.20112308 201.94956045 49.34922791 203.08352661 C46.94077471 204.46167602 44.69911856 205.59885241 42.17630005 206.69625854 C34.99633969 209.91615414 34.99633969 209.91615414 30.16401482 215.80602074 C28.88672832 221.0459558 29.27752675 226.38104049 29.53515625 231.72265625 C29.56317359 233.4360572 29.58450653 235.14957927 29.59947205 236.86314392 C29.65645094 241.34962373 29.80345856 245.82868619 29.97003174 250.31225586 C30.1241659 254.89660253 30.19212671 259.4821624 30.26757812 264.06835938 C30.42791453 273.04881296 30.68349983 282.02378734 31 291 C34.76716237 289.53028926 38.19053264 287.8497922 41.69921875 285.83203125 C42.81248535 285.19386475 43.92575195 284.55569824 45.07275391 283.89819336 C46.27771682 283.20304466 47.4826309 282.5078113 48.6875 281.8125 C49.94434799 281.09031382 51.20134912 280.3683941 52.45849609 279.64672852 C55.68637148 277.79256933 58.91189349 275.93436047 62.13653564 274.07458496 C64.99525204 272.42607817 67.85518454 270.77968312 70.71484375 269.1328125 C74.97325022 266.67905034 79.22947136 264.22154926 83.484375 261.76171875 C87.46247583 259.46259977 91.44396578 257.16959075 95.43008423 254.88441467 C97.83366575 253.50635247 100.2361628 252.12640549 102.63861084 250.74636841 C104.33372219 249.77368588 106.0303681 248.80367923 107.72705078 247.83374023 C108.7529834 247.24407471 109.77891602 246.65440918 110.8359375 246.046875 C111.73876465 245.52963867 112.6415918 245.01240234 113.57177734 244.47949219 C114.77374756 243.74714355 114.77374756 243.74714355 116 243 C116.70071625 242.67462753 117.4014325 242.34925507 118.12338257 242.01402283 C121.25875602 238.64907822 120.52156455 234.7197871 120.45410156 230.29614258 C120.45468567 229.3008403 120.45526978 228.30553802 120.45587158 227.28007507 C120.45308099 223.98454115 120.42194216 220.6899075 120.390625 217.39453125 C120.3831661 215.11195876 120.37747151 212.82937988 120.37347412 210.54679871 C120.35819027 204.53458015 120.31888435 198.52274719 120.2746582 192.51068115 C120.23376503 186.37761654 120.21547582 180.24448972 120.1953125 174.11132812 C120.15239309 162.07404919 120.0841082 150.03705664 120 138 C113.56187572 138 104.97448317 143.95672325 100.05273438 147.66455078 Z M-67 199 C-67 212.86 -67 226.72 -67 241 C-63.37 243.02125 -59.74 245.0425 -56 247.125 C-45.30961355 253.09827537 -34.70919038 259.21350253 -24.14453125 265.40625 C-16.47861315 269.8982221 -8.77847531 274.33042842 -1.07836914 278.76342773 C-0.06766357 279.34552002 0.94304199 279.9276123 1.984375 280.52734375 C2.96857422 281.09308105 3.95277344 281.65881836 4.96679688 282.24169922 C7.10529353 283.48135254 9.23613976 284.73424978 11.36132812 285.99658203 C12.44349609 286.63837402 13.52566406 287.28016602 14.640625 287.94140625 C15.62063477 288.52736572 16.60064453 289.1133252 17.61035156 289.71704102 C19.84163896 291.15767351 19.84163896 291.15767351 22 291 C22 267.57 22 244.14 22 220 C18.45379014 221.41848394 15.55200558 222.7395331 12.3125 224.63671875 C11.44882813 225.13107422 10.58515625 225.62542969 9.6953125 226.13476562 C7.89334721 227.17285432 6.09645853 228.21980378 4.3046875 229.27539062 C3.44101563 229.76587891 2.57734375 230.25636719 1.6875 230.76171875 C0.90761719 231.21506592 0.12773438 231.66841309 -0.67578125 232.13549805 C-3.61597552 233.22911442 -5.03185646 232.95182803 -8 232 C-10.3581543 230.83935547 -10.3581543 230.83935547 -12.82421875 229.3671875 C-13.7582251 228.81530762 -14.69223145 228.26342773 -15.65454102 227.69482422 C-16.65541748 227.09428223 -17.65629395 226.49374023 -18.6875 225.875 C-20.83549963 224.6034267 -22.98395393 223.33262121 -25.1328125 222.0625 C-26.25204102 221.39863281 -27.37126953 220.73476562 -28.52441406 220.05078125 C-34.34180886 216.6095865 -40.20448883 213.24639117 -46.0625 209.875 C-47.14942139 209.24835449 -48.23634277 208.62170898 -49.35620117 207.97607422 C-51.36298738 206.81932272 -53.37065083 205.66409108 -55.37939453 204.51074219 C-56.99960834 203.57671172 -58.61600922 202.63598841 -60.22607422 201.68457031 C-63.3974623 199.6605121 -63.3974623 199.6605121 -67 199 Z M-59.0625 265.375 C-59.80822266 265.7875 -60.55394531 266.2 -61.32226562 266.625 C-62.38670898 267.22441406 -62.38670898 267.22441406 -63.47265625 267.8359375 C-64.12500244 268.20251465 -64.77734863 268.5690918 -65.44946289 268.94677734 C-67.16857203 269.92998345 -67.16857203 269.92998345 -68 272 C-64.35416552 274.12144111 -60.70625918 276.23926011 -57.05639648 278.35375977 C-55.81526153 279.07347212 -54.57469637 279.79416802 -53.3347168 280.51586914 C-51.55146078 281.55354275 -49.76618003 282.58765249 -47.98046875 283.62109375 C-46.37014771 284.55586548 -46.37014771 284.55586548 -44.72729492 285.50952148 C-42.0289306 287.08894536 -42.0289306 287.08894536 -39 288 C-37.0134153 287.21401491 -37.0134153 287.21401491 -34.98828125 285.91015625 C-34.23095703 285.45576172 -33.47363281 285.00136719 -32.69335938 284.53320312 C-31.90767578 284.04787109 -31.12199219 283.56253906 -30.3125 283.0625 C-29.51521484 282.58103516 -28.71792969 282.09957031 -27.89648438 281.60351562 C-25.92527257 280.41134561 -23.96031588 279.2099739 -22 278 C-24.86236174 274.91022694 -27.68729904 272.82919392 -31.3515625 270.765625 C-32.36734375 270.19199219 -33.383125 269.61835938 -34.4296875 269.02734375 C-35.48414063 268.44082031 -36.53859375 267.85429687 -37.625 267.25 C-38.6871875 266.64800781 -39.749375 266.04601562 -40.84375 265.42578125 C-49.25324436 260.70747716 -50.86818425 260.73321558 -59.0625 265.375 Z M85.25 269.75 C83.12254004 271.07394148 80.99356902 272.39545718 78.86328125 273.71484375 C77.74904785 274.41722168 76.63481445 275.11959961 75.48681641 275.84326172 C69.58556969 279.52875456 63.49667021 282.89590009 57.4375 286.3125 C48.19454693 291.52020294 48.19454693 291.52020294 39.140625 297.046875 C38.45427979 297.48088623 37.76793457 297.91489746 37.06079102 298.36206055 C35.35608882 299.45446518 33.66731958 300.57163317 31.98046875 301.69140625 C28.1541531 303.37137446 26.00598623 303.04564606 22 302 C19.84539313 300.81099023 18.04015474 299.45356452 16.08984375 297.9609375 C12.99520434 296.53798181 11.25786544 297.0855809 8 298 C5.44387787 299.20058699 3.04050138 300.60260929 0.625 302.0625 C-0.33599609 302.62807617 -0.33599609 302.62807617 -1.31640625 303.20507812 C-2.88254066 304.12839617 -4.44198034 305.06305393 -6 306 C-6 306.66 -6 307.32 -6 308 C-2.52180001 310.0279352 0.96530385 312.03948855 4.46142578 314.03637695 C5.64920165 314.71781593 6.8344596 315.40366356 8.01708984 316.09399414 C9.71823055 317.08596914 11.42932878 318.06080551 13.140625 319.03515625 C14.68024902 319.92279663 14.68024902 319.92279663 16.25097656 320.82836914 C18.81620966 322.16738239 18.81620966 322.16738239 21.03735352 321.86083984 C23.5338508 320.76584676 25.88590368 319.53075975 28.26171875 318.19140625 C29.289021 317.61463135 30.31632324 317.03785645 31.37475586 316.44360352 C32.46796143 315.82283936 33.56116699 315.2020752 34.6875 314.5625 C36.38434937 313.60525024 36.38434937 313.60525024 38.11547852 312.62866211 C44.91348828 308.78298615 51.67869488 304.88668675 58.39526367 300.90063477 C64.8973699 297.04329471 71.44764701 293.27121924 78 289.5 C88.03363681 283.72285926 98.03666929 277.89751469 108 272 C100.12616103 262.81385454 94.86288965 263.40883492 85.25 269.75 Z M-73 280 C-73 313.66 -73 347.32 -73 382 C-59.14 389.92 -59.14 389.92 -45 398 C-32.875 405.0625 -32.875 405.0625 -27.04296875 408.47265625 C-20.43525372 412.33379751 -13.81383192 416.17093824 -7.1875 420 C-6.13224121 420.61109619 -5.07698242 421.22219238 -3.98974609 421.85180664 C-2.97605957 422.43696045 -1.96237305 423.02211426 -0.91796875 423.625 C-0.03906982 424.13289062 0.8398291 424.64078125 1.74536133 425.1640625 C6.46793826 427.82806209 11.23992531 430.40359563 16 433 C16 399.01 16 365.02 16 330 C10.06 326.7 4.12 323.4 -2 320 C-4.97 318.35 -7.94 316.7 -11 315 C-11.33 323.25 -11.66 331.5 -12 340 C-17.867286 340 -19.1068048 339.78685361 -23.80078125 336.97265625 C-24.85974609 336.34552734 -25.91871094 335.71839844 -27.00976562 335.07226562 C-28.09966797 334.40904297 -29.18957031 333.74582031 -30.3125 333.0625 C-31.42173828 332.40314453 -32.53097656 331.74378906 -33.67382812 331.06445312 C-41.76864077 326.23135923 -41.76864077 326.23135923 -43 325 C-42.99924272 322.94607976 -42.9409932 320.89214183 -42.859375 318.83984375 C-42.01880745 306.00211409 -42.01880745 306.00211409 -45.09326172 293.97460938 C-48.34892449 290.65983703 -52.70793592 289.46763761 -57 288 C-59.62752775 286.60543965 -62.14962817 285.05034981 -64.6875 283.5 C-68.59284049 280.96024637 -68.59284049 280.96024637 -73 280 Z M106.03125 282.75390625 C104.99871094 283.35332031 103.96617187 283.95273437 102.90234375 284.5703125 C101.21818359 285.55644531 101.21818359 285.55644531 99.5 286.5625 C98.32448406 287.24654988 97.14869853 287.93013667 95.97265625 288.61328125 C93.52629074 290.03482132 91.08110537 291.45836082 88.63671875 292.88330078 C83.10194944 296.1075719 77.55011915 299.30225204 72 302.5 C69.85671715 303.73688615 67.71348832 304.97386591 65.5703125 306.2109375 C61.60328016 308.49983986 57.63468798 310.78598811 53.66400146 313.06854248 C51.88250422 314.09275665 50.10135678 315.11757651 48.3203125 316.14257812 C46.08923375 317.42633375 43.85750427 318.70895939 41.625 319.99023438 C40.61179688 320.57353516 39.59859375 321.15683594 38.5546875 321.7578125 C37.67280762 322.2645752 36.79092773 322.77133789 35.88232422 323.29345703 C34.93115723 323.85661621 33.97999023 324.41977539 33 325 C32.34014917 325.30071946 31.68029835 325.60143892 31.00045204 325.9112711 C26.67230527 328.07866966 26.67230527 328.07866966 24.27332878 332.08408737 C24.01266377 334.73044173 24.01009692 337.27274168 24.09179688 339.9309082 C24.09062866 340.92650253 24.08946045 341.92209686 24.08825684 342.94786072 C24.09382379 346.23359449 24.15601293 349.51568306 24.21875 352.80078125 C24.2336734 355.08048011 24.24505995 357.36020465 24.25305176 359.63993835 C24.28357729 365.63623058 24.36214675 371.63096907 24.45068359 377.62664795 C24.53256442 383.74632751 24.56906819 389.86625851 24.609375 395.98632812 C24.69513823 407.99156757 24.83165257 419.99565452 25 432 C28.79130874 430.52122382 32.23693832 428.82498817 35.76953125 426.796875 C36.89311035 426.15355225 38.01668945 425.51022949 39.17431641 424.84741211 C40.38711721 424.14840128 41.59984319 423.44926061 42.8125 422.75 C44.07459978 422.0252852 45.33680831 421.30075976 46.59912109 420.57641602 C55.42739592 415.50508223 64.2286564 410.38757303 73.01611328 405.24584961 C81.83452622 400.08689355 90.6827021 394.98050678 99.53759766 389.88452148 C100.57062012 389.28969971 101.60364258 388.69487793 102.66796875 388.08203125 C103.57828857 387.55843018 104.4886084 387.0348291 105.42651367 386.49536133 C106.27576416 386.00189209 107.12501465 385.50842285 108 385 C108.86637085 384.67430023 109.7327417 384.34860046 110.62536621 384.01303101 C113.12848067 382.29430673 113.12848067 382.29430673 113.45115376 380.09957027 C113.61935747 377.48590669 113.6175489 374.91490522 113.56762695 372.29614258 C113.56835709 371.3008403 113.56908722 370.30553802 113.56983948 369.28007507 C113.56635102 365.98434285 113.527429 362.69001711 113.48828125 359.39453125 C113.47895764 357.11196159 113.4718394 354.82938194 113.46684265 352.54679871 C113.44773752 346.53447927 113.39860557 340.52276229 113.34332275 334.51068115 C113.29220654 328.37764639 113.26934487 322.24451443 113.24414062 316.11132812 C113.19049094 304.07395382 113.10513499 292.03702698 113 280 C110.12340442 280 108.51241452 281.30604957 106.03125 282.75390625 Z M-18.88671875 285.625 C-19.82451172 286.16640625 -20.76230469 286.7078125 -21.72851562 287.265625 C-22.70498047 287.83796875 -23.68144531 288.4103125 -24.6875 289 C-26.16959961 289.85851562 -26.16959961 289.85851562 -27.68164062 290.734375 C-30.12449876 292.15052464 -32.56371318 293.57258458 -35 295 C-35.26233625 299.04042673 -35.42150491 303.07866481 -35.5625 307.125 C-35.63791016 308.26710938 -35.71332031 309.40921875 -35.79101562 310.5859375 C-36.08058738 316.83119154 -36.08058738 316.83119154 -33.16748047 322.07324219 C-29.11784545 324.86814447 -24.77462387 326.77573747 -20 328 C-20.07968018 327.33581055 -20.15936035 326.67162109 -20.24145508 325.98730469 C-20.9673402 318.63795679 -21.62565165 311.02520199 -19 304 C-13.50134817 297.96396256 -5.51573731 294.83315752 2 292 C-0.70965645 289.22024476 -3.15041678 287.12058369 -6.5625 285.25 C-7.32691406 284.82203125 -8.09132813 284.3940625 -8.87890625 283.953125 C-13.02097633 282.09186331 -15.21334572 283.48776478 -18.88671875 285.625 Z " fill="#f66398" transform="translate(106,34)"/>
<path d="M0 0 C3.31280751 3.76974648 5 5.84606998 5 11 C5.98395752 10.98428955 5.98395752 10.98428955 6.98779297 10.96826172 C9.95015658 10.92677497 12.91245916 10.90069738 15.875 10.875 C16.90753906 10.85824219 17.94007813 10.84148437 19.00390625 10.82421875 C19.99003906 10.81777344 20.97617187 10.81132813 21.9921875 10.8046875 C23.35899658 10.78897705 23.35899658 10.78897705 24.75341797 10.77294922 C27 11 27 11 29 13 C29.125 16.625 29.125 16.625 29 20 C29.8193956 19.99111755 30.6387912 19.98223511 31.48301697 19.9730835 C39.23558839 19.89266632 46.98795527 19.8318987 54.74083614 19.79275131 C58.72592518 19.77194802 62.71066724 19.74376503 66.69555664 19.69824219 C70.54704217 19.65452273 74.39819567 19.63080841 78.24991035 19.62049103 C79.71342756 19.61314611 81.17692826 19.59880393 82.64030266 19.57707977 C91.73775027 19.4474962 100.23194006 19.42197144 107.15625 26.0703125 C107.5996875 26.74835938 108.043125 27.42640625 108.5 28.125 C108.9640625 28.80820313 109.428125 29.49140625 109.90625 30.1953125 C111.82871707 33.36738316 112.1269497 35.23123565 112.13422108 38.94019508 C112.13867892 39.99122905 112.14313676 41.04226302 112.14772969 42.12514651 C112.14754533 43.28893025 112.14736097 44.452714 112.14717102 45.65176392 C112.15084771 46.88106105 112.1545244 48.11035819 112.1583125 49.37690675 C112.16745198 52.80023187 112.17205181 56.22350899 112.17470181 59.64684176 C112.17860033 63.33479991 112.18817908 67.0227441 112.19691467 70.71069336 C112.21669363 79.62358048 112.22674787 88.53646876 112.23564246 97.44937235 C112.2400237 101.64531978 112.245391 105.84126594 112.25063133 110.03721237 C112.26764632 123.98397116 112.28214023 137.93072915 112.28938007 151.87749672 C112.29129002 155.49824652 112.29321034 159.11899632 112.29516602 162.73974609 C112.29564976 163.63968227 112.2961335 164.53961844 112.2966319 165.46682541 C112.30493115 180.04335021 112.33026508 194.61979291 112.36274669 209.19628187 C112.39581459 224.15774965 112.41382866 239.11917572 112.41702431 254.08068025 C112.41918984 262.48254571 112.42794455 270.88429151 112.45348549 279.28612137 C112.47518897 286.44221819 112.48324474 293.59816632 112.47351871 300.75429232 C112.46897271 304.40494393 112.47087717 308.05528872 112.49028015 311.70589828 C112.51114692 315.66617102 112.50093036 319.62602074 112.48774719 323.58633423 C112.49871644 324.73673364 112.50968568 325.88713306 112.52098733 327.07239306 C112.46649537 333.84622285 111.62706659 338.23160566 108 344 C105.78125 346.05859375 105.78125 346.05859375 103.5 347.4375 C102.37078125 348.14712891 102.37078125 348.14712891 101.21875 348.87109375 C96.37478128 351.33571868 91.55647044 351.14595303 86.22076416 351.14044189 C84.87653212 351.14489858 84.87653212 351.14489858 83.50514388 351.1494453 C80.49593286 351.15813148 77.48676163 351.15964048 74.47753906 351.16113281 C72.32246821 351.16576104 70.16739818 351.17078571 68.0123291 351.17617798 C62.15271187 351.18930353 56.29310609 351.19574725 50.43347645 351.20018864 C46.77296863 351.20311912 43.11246394 351.20722389 39.4519577 351.21169281 C28.00009623 351.22536817 16.54824192 351.23503463 5.09637284 351.2388947 C-8.12499066 351.24337563 -21.34625078 351.26092509 -34.56758285 351.2898953 C-44.78596514 351.31150864 -55.00431834 351.3215988 -65.22272325 351.32293582 C-71.32629509 351.3239841 -77.42976977 351.32989684 -83.53331757 351.34775543 C-89.2755949 351.36422999 -95.01770196 351.36639451 -100.75999451 351.35761642 C-102.86586717 351.35684572 -104.97174896 351.36119308 -107.07759857 351.37107468 C-109.95621142 351.38378866 -112.8342207 351.37792017 -115.71282959 351.36749268 C-116.95779571 351.37957728 -116.95779571 351.37957728 -118.22791266 351.39190602 C-125.78012579 351.32808535 -132.5027312 349.4972688 -138 344 C-143.7522332 336.20727867 -143.14684983 327.56136576 -143.13371277 318.2472229 C-143.13597833 317.06744539 -143.13824388 315.88766787 -143.14057809 314.67213953 C-143.14580174 311.41026505 -143.14656495 308.14842536 -143.14538372 304.88654804 C-143.14517919 301.36362631 -143.15070341 297.84071272 -143.15544128 294.3177948 C-143.16373673 287.42088083 -143.16649561 280.5239754 -143.16705366 273.62705685 C-143.16752929 268.01993867 -143.16958639 262.41282331 -143.17275429 256.80570602 C-143.1815574 240.90010689 -143.18617413 224.9945145 -143.18542381 209.08891292 C-143.18538386 208.23199353 -143.1853439 207.37507414 -143.18530273 206.4921875 C-143.18524141 205.20523495 -143.18524141 205.20523495 -143.18517885 203.89228337 C-143.18477235 189.98606517 -143.19434377 176.07987405 -143.2084411 162.17366369 C-143.22280994 147.88664991 -143.22971102 133.59964934 -143.22884732 119.31262815 C-143.22851556 111.29481892 -143.23125381 103.27703809 -143.24202538 95.25923538 C-143.251137 88.43342777 -143.25330014 81.60766142 -143.24651595 74.78185035 C-143.24325425 71.30124986 -143.24318141 67.82072851 -143.2518692 64.34013557 C-143.25958142 60.56226782 -143.25494917 56.78460764 -143.24723816 53.00674438 C-143.25238172 51.91325074 -143.25752529 50.81975709 -143.26282471 49.69312727 C-143.2289861 42.18558175 -143.13256524 33.93421074 -138.4375 27.6875 C-137.78587891 26.76517578 -137.78587891 26.76517578 -137.12109375 25.82421875 C-129.2996059 19.09745112 -120.23962628 19.46426593 -110.46484375 19.609375 C-108.97555812 19.61684924 -107.48626255 19.62253657 -105.9969635 19.62652588 C-102.10548025 19.64168948 -98.21460842 19.68088874 -94.32336426 19.7253418 C-90.34131131 19.76649681 -86.35915813 19.78457976 -82.37695312 19.8046875 C-74.58435878 19.84739415 -66.79226554 19.91552996 -59 20 C-59.04125 18.88625 -59.0825 17.7725 -59.125 16.625 C-59 13 -59 13 -57 11 C-54.75341797 10.77294922 -54.75341797 10.77294922 -51.9921875 10.8046875 C-51.00605469 10.81113281 -50.01992188 10.81757812 -49.00390625 10.82421875 C-47.97136719 10.84097656 -46.93882812 10.85773438 -45.875 10.875 C-44.83472656 10.88402344 -43.79445313 10.89304687 -42.72265625 10.90234375 C-40.14820908 10.92596253 -37.57421788 10.95889851 -35 11 C-34.81824219 9.61167969 -34.81824219 9.61167969 -34.6328125 8.1953125 C-33.69118413 3.44067049 -31.12982072 0.56385437 -27.32421875 -2.23046875 C-18.44587544 -7.68346453 -7.93929502 -6.83148642 0 0 Z M-25 8 C-25.97774218 10.59493598 -26.74475162 13.16665905 -27.421875 15.85546875 C-28 18 -28 18 -29 19 C-30.55948542 19.15686249 -32.12542668 19.25076639 -33.69140625 19.31640625 C-34.96673218 19.37356812 -34.96673218 19.37356812 -36.26782227 19.43188477 C-37.35506592 19.47498779 -38.44230957 19.51809082 -39.5625 19.5625 C-43.006875 19.706875 -46.45125 19.85125 -50 20 C-50 29.57 -50 39.14 -50 49 C-26.9 49 -3.8 49 20 49 C20 39.43 20 29.86 20 20 C13.07 19.67 6.14 19.34 -1 19 C-1.556875 17.453125 -2.11375 15.90625 -2.6875 14.3125 C-4.49722806 9.89776545 -5.88787953 6.6818177 -10 4 C-15.88866216 2.92138366 -21.10525666 3.04305393 -25 8 Z M-130 32 C-133.34248097 36.49506061 -134.12356737 40.48345629 -134.13142776 45.98605824 C-134.13526891 46.99640686 -134.13911005 48.00675548 -134.1430676 49.04772073 C-134.14220112 50.15577858 -134.14133463 51.26383644 -134.14044189 52.4054718 C-134.14341302 53.58409717 -134.14638414 54.76272254 -134.1494453 55.97706383 C-134.156625 59.24957538 -134.15930457 62.52205496 -134.16004276 65.79457319 C-134.16189423 69.3236464 -134.169442 72.85270826 -134.17617798 76.3817749 C-134.18975763 84.09870251 -134.19578533 91.81562492 -134.20018864 99.53256249 C-134.20295146 104.35088921 -134.20718886 109.16921393 -134.21169281 113.98753929 C-134.22388457 127.32789261 -134.23418435 140.66824433 -134.2375679 154.0086031 C-134.23778747 154.86234133 -134.23800703 155.71607956 -134.23823325 156.59568865 C-134.23845153 157.45146801 -134.23866981 158.30724736 -134.2388947 159.18895942 C-134.23933817 160.92309209 -134.23978473 162.65722476 -134.24023438 164.39135742 C-134.2404558 165.25154691 -134.24067723 166.1117364 -134.24090537 166.99799224 C-134.24485393 180.93809743 -134.26231011 194.87815037 -134.2855939 208.81823537 C-134.3093056 223.13000495 -134.32176966 237.4417483 -134.32293582 251.75353783 C-134.32385264 259.78923049 -134.32960671 267.82485504 -134.34775543 275.86052895 C-134.36315392 282.70258194 -134.36827836 289.54454578 -134.36001733 296.38661281 C-134.35611002 299.87710929 -134.3570442 303.36742622 -134.37107468 306.85790062 C-134.38373385 310.64328155 -134.37794965 314.42819989 -134.36749268 318.21357727 C-134.37554908 319.31494296 -134.38360548 320.41630865 -134.39190602 321.55104905 C-134.34597994 328.64691382 -133.70983595 333.78206981 -129 339.375 C-124.90423236 342.70281121 -120.40628119 342.14563359 -115.39675903 342.14044189 C-114.06288424 342.14489858 -114.06288424 342.14489858 -112.70206249 342.1494453 C-109.71038249 342.15814471 -106.71874244 342.15964159 -103.72705078 342.16113281 C-101.58696405 342.16576006 -99.44687815 342.17078459 -97.30679321 342.17617798 C-91.48450709 342.18931185 -85.6622325 342.19574871 -79.83993387 342.20018864 C-76.20474879 342.2031174 -72.56956688 342.2072218 -68.93438339 342.21169281 C-57.56742051 342.22536952 -46.20046485 342.23503568 -34.83349431 342.2388947 C-21.69925125 342.24337788 -8.56511214 342.26093717 4.56909931 342.2898953 C14.71352982 342.31148757 24.85793104 342.32159765 35.00238431 342.32293582 C41.06507492 342.32398549 47.12766784 342.32992777 53.19033432 342.34775543 C58.89155069 342.36419397 64.59259549 342.36641214 70.29382706 342.35761642 C72.38805856 342.35684382 74.48229912 342.36121801 76.57650757 342.37107468 C79.43214179 342.38372851 82.28716231 342.37795313 85.14279175 342.36749268 C85.97440791 342.37554908 86.80602407 342.38360548 87.66284072 342.39190602 C92.28642361 342.35220665 95.21944538 341.94443192 99 339 C103.47907492 334.27208758 104.12233108 330.2496298 104.13142776 323.90651131 C104.13526891 322.89765503 104.13911005 321.88879875 104.1430676 320.84937108 C104.14220112 319.74811701 104.14133463 318.64686295 104.14044189 317.51223755 C104.14341302 316.33684131 104.14638414 315.16144506 104.1494453 313.95043075 C104.15661691 310.69158008 104.15930393 307.43276155 104.16004276 304.17390418 C104.16189616 300.65780025 104.16944483 297.14170769 104.17617798 293.62561035 C104.18974895 285.93973271 104.19578379 278.25386029 104.20018864 270.56797266 C104.20295255 265.76856914 104.20719012 260.96916763 104.21169281 256.16976547 C104.22388274 242.87998392 104.23418333 229.59020397 104.2375679 216.30041695 C104.23778747 215.45018144 104.23800703 214.59994594 104.23823325 213.72394573 C104.23845153 212.87168942 104.23866981 212.01943312 104.2388947 211.14135087 C104.23933817 209.41438365 104.23978473 207.68741643 104.24023438 205.96044922 C104.2404558 205.10381585 104.24067723 204.24718247 104.24090537 203.36459051 C104.24485465 189.47951428 104.26231387 175.59449049 104.2855939 161.70943452 C104.3093055 147.45187388 104.32176963 133.19433956 104.32293582 118.93675888 C104.32385257 110.93238014 104.32960502 102.92806977 104.34775543 94.92370987 C104.36315368 88.10912937 104.36827845 81.29463838 104.36001733 74.48004378 C104.35611013 71.00371694 104.35704373 67.52757039 104.37107468 64.05126572 C104.38373421 60.28126438 104.37794949 56.51172751 104.36749268 52.74172974 C104.37554908 51.64493712 104.38360548 50.5481445 104.39190602 49.41811574 C104.34587722 42.33501866 103.70129447 37.20778718 99 31.625 C95.39532708 28.69620325 92.16900015 28.87781625 87.69262695 28.88647461 C86.39150467 28.88655014 85.09038239 28.88662567 83.74983215 28.88670349 C82.3293148 28.89181015 80.90879783 28.89702615 79.48828125 28.90234375 C78.03525338 28.90420909 76.58222489 28.90563244 75.12919617 28.90663147 C71.30693828 28.91044754 67.48471845 28.92027007 63.66247559 28.93133545 C59.76131709 28.94156913 55.86015243 28.94613329 51.95898438 28.95117188 C44.30597224 28.96189314 36.65299146 28.97895865 29 29 C29 32.63 29 36.26 29 40 C29.78482758 40.01030746 30.56965515 40.02061493 31.37826538 40.03123474 C38.76522328 40.12910777 46.15209546 40.23160753 53.53891563 40.33933926 C57.33678642 40.39456444 61.1346649 40.44798378 64.93261719 40.49731445 C68.59607367 40.54496401 72.25943546 40.597307 75.92277908 40.65294075 C77.32222773 40.67336163 78.72170235 40.69207517 80.12119675 40.70907402 C82.07744014 40.73312361 84.03359949 40.76374122 85.98974609 40.79467773 C87.1044931 40.81022202 88.21924011 40.8257663 89.36776733 40.84178162 C92 41 92 41 94 42 C94 136.71 94 231.42 94 329 C90.76027285 330.61986357 87.20793357 330.13660201 83.64868164 330.12698364 C82.77450372 330.12854363 81.90032579 330.13010362 80.99965763 330.13171089 C78.05314032 330.13571832 75.106674 330.13253222 72.16015625 330.12939453 C70.0547584 330.13074869 67.94936079 330.1325287 65.84396362 330.13470459 C60.11271971 330.13927724 54.38149372 330.13749005 48.65024948 330.1343255 C42.66404928 330.13180104 36.67785065 330.13413968 30.69165039 330.13571167 C20.63720422 330.13753311 10.58276538 330.13512772 0.52832031 330.13037109 C-11.11077048 330.12492852 -22.74984376 330.1266912 -34.38893414 330.1321975 C-44.36599471 330.13672935 -54.34305 330.13737882 -64.32011127 330.13475883 C-70.28599141 330.13319645 -76.25186331 330.13300122 -82.21774292 330.13629532 C-87.82532449 330.13917507 -93.43288338 330.1371964 -99.04046249 330.13140106 C-101.10369708 330.13007403 -103.16693355 330.13046663 -105.23016739 330.13266373 C-108.03636494 330.13537742 -110.84248884 330.13199136 -113.64868164 330.12698364 C-114.47415465 330.12921436 -115.29962767 330.13144509 -116.15011501 330.13374341 C-121.77169994 330.11415003 -121.77169994 330.11415003 -124 329 C-124 234.29 -124 139.58 -124 42 C-121.26635853 40.63317926 -119.04962521 40.83734537 -115.98974609 40.79467773 C-114.72858978 40.77473251 -113.46743347 40.75478729 -112.1680603 40.73423767 C-110.78652063 40.71725335 -109.40497966 40.70037454 -108.0234375 40.68359375 C-106.61381418 40.6630244 -105.20419703 40.64202793 -103.79458618 40.62062073 C-100.08252965 40.56539805 -96.37041743 40.51598969 -92.65826416 40.46777344 C-88.87108397 40.41755982 -85.08398474 40.36187303 -81.296875 40.30664062 C-73.86465188 40.19905667 -66.43236148 40.09761227 -59 40 C-59 36.37 -59 32.74 -59 29 C-67.37129108 28.93037694 -75.74246043 28.87712656 -84.1139698 28.84456348 C-88.00153991 28.82893193 -91.88891138 28.80773996 -95.77636719 28.77368164 C-99.53056659 28.74099799 -103.28457536 28.72312811 -107.0389061 28.71536827 C-108.46859613 28.70984085 -109.89827616 28.6990471 -111.32788467 28.68280983 C-113.33583584 28.66091841 -115.34398031 28.6597736 -117.35205078 28.65942383 C-118.49344513 28.65276199 -119.63483948 28.64610016 -120.81082153 28.63923645 C-124.47275757 29.05347888 -126.85827128 30.10053728 -130 32 Z M-116 49 C-116 139.09 -116 229.18 -116 322 C-49.34 322 17.32 322 86 322 C86 231.91 86 141.82 86 49 C67.19 49 48.38 49 29 49 C28.67 51.31 28.34 53.62 28 56 C26.23671528 57.76328472 23.90482856 57.12615644 21.55593872 57.13552856 C20.38549515 57.13249222 20.38549515 57.13249222 19.19140625 57.12939453 C18.37356659 57.13114685 17.55572693 57.13289917 16.71310425 57.13470459 C13.9962149 57.13912385 11.27939007 57.13618486 8.5625 57.1328125 C6.68302396 57.13348552 4.80354801 57.13445553 2.92407227 57.13571167 C-1.02035346 57.13718874 -4.96475658 57.13503379 -8.90917969 57.13037109 C-13.97712503 57.1246738 -19.04501742 57.12795276 -24.11296082 57.13394356 C-27.99556887 57.13754892 -31.87816428 57.1364107 -35.76077271 57.13381577 C-37.62997443 57.13314643 -39.49917728 57.13397516 -41.36837769 57.13629532 C-43.97608504 57.13882143 -46.58370541 57.13498184 -49.19140625 57.12939453 C-49.97170197 57.13141876 -50.75199768 57.13344299 -51.55593872 57.13552856 C-56.88573747 57.11426253 -56.88573747 57.11426253 -58 56 C-58.495 52.535 -58.495 52.535 -59 49 C-77.81 49 -96.62 49 -116 49 Z " fill="#f66398" transform="translate(400,64)"/>
<path d="M0 0 C1.38595619 -0.00639748 1.38595619 -0.00639748 2.7999115 -0.01292419 C3.81658905 -0.01247101 4.8332666 -0.01201782 5.88075256 -0.0115509 C7.48330147 -0.01658882 7.48330147 -0.01658882 9.1182251 -0.02172852 C12.66416066 -0.03125906 16.21004912 -0.03318265 19.7559967 -0.03425598 C22.21217875 -0.03746696 24.6683606 -0.04083091 27.12454224 -0.04434204 C32.27863509 -0.05033848 37.43271116 -0.0521814 42.58680725 -0.05158997 C49.20265771 -0.05148828 55.818401 -0.06514469 62.43422604 -0.08236217 C67.50844826 -0.09346091 72.58264439 -0.09550983 77.65687752 -0.09498024 C80.0966027 -0.09616341 82.5363285 -0.10060392 84.97604179 -0.10831261 C88.38315798 -0.11807015 91.79003914 -0.11525124 95.19715881 -0.10920715 C96.71913879 -0.11763641 96.71913879 -0.11763641 98.27186584 -0.12623596 C99.19865646 -0.12204147 100.12544708 -0.11784698 101.08032227 -0.11352539 C101.88613708 -0.11407016 102.69195189 -0.11461493 103.52218533 -0.1151762 C105.60365295 0.13371277 105.60365295 0.13371277 108.60365295 2.13371277 C108.91615295 4.63371277 108.91615295 4.63371277 108.60365295 7.13371277 C106.1490385 9.58832722 105.49622512 9.3859837 102.12464905 9.39440918 C100.71128265 9.40503639 100.71128265 9.40503639 99.2693634 9.4158783 C97.71393829 9.41216217 97.71393829 9.41216217 96.12709045 9.40837097 C95.03761108 9.4134819 93.94813171 9.41859283 92.82563782 9.42385864 C89.20992094 9.43780459 85.59439359 9.43679424 81.97865295 9.43449402 C79.47523426 9.4383779 76.97181622 9.44271193 74.46839905 9.44747925 C69.21594112 9.45495202 63.96353262 9.45477982 58.71107483 9.4493866 C52.63412033 9.4433429 46.55739713 9.45566595 40.4804821 9.47695667 C34.64027219 9.49666796 28.80015326 9.49974995 22.95991516 9.49622154 C20.47191321 9.49673663 17.98390771 9.50200919 15.4959259 9.51203346 C12.02383862 9.52430598 8.55229341 9.51766158 5.08021545 9.50602722 C3.52479034 9.51749283 3.52479034 9.51749283 1.9379425 9.52919006 C0.99569824 9.52217575 0.05345398 9.51516144 -0.91734314 9.50793457 C-1.73882843 9.50810231 -2.56031372 9.50827005 -3.4066925 9.50844288 C-4.0632785 9.38478194 -4.7198645 9.26112101 -5.39634705 9.13371277 C-7.39634705 6.13371277 -7.39634705 6.13371277 -7.14634705 3.50871277 C-6.89884705 2.72496277 -6.65134705 1.94121277 -6.39634705 1.13371277 C-4.03805909 -0.04543121 -2.62974338 0.00547161 0 0 Z " fill="#f66398" transform="translate(360.39634704589844,160.8662872314453)"/>
<path d="M0 0 C1.38595619 -0.00845947 1.38595619 -0.00845947 2.7999115 -0.01708984 C4.32492783 -0.01101715 4.32492783 -0.01101715 5.88075256 -0.00482178 C7.48330147 -0.01007874 7.48330147 -0.01007874 9.1182251 -0.01544189 C12.66421428 -0.02427367 16.21000535 -0.01840448 19.7559967 -0.01165771 C22.21217894 -0.01300405 24.66836092 -0.01494431 27.12454224 -0.01745605 C32.27865632 -0.02040936 37.4327012 -0.01610337 42.58680725 -0.0067749 C49.20266963 0.0046137 55.81836964 -0.00193488 62.43422604 -0.01391983 C67.5084557 -0.02113793 72.58264671 -0.01885061 77.65687752 -0.01366425 C80.09659914 -0.0123273 82.53632423 -0.01397701 84.97604179 -0.01862335 C88.38317569 -0.02368703 91.79004471 -0.01598008 95.19715881 -0.00482178 C96.21181213 -0.00887024 97.22646545 -0.0129187 98.27186584 -0.01708984 C99.19865646 -0.0114502 100.12544708 -0.00581055 101.08032227 0 C101.88613708 0.00075405 102.69195189 0.0015081 103.52218533 0.002285 C105.60365295 0.25396729 105.60365295 0.25396729 108.60365295 2.25396729 C108.27365295 4.56396729 107.94365295 6.87396729 107.60365295 9.25396729 C92.88755731 9.27729723 78.1714641 9.29494693 63.45535374 9.30577946 C56.62286321 9.31094221 49.79038416 9.31798452 42.957901 9.32940674 C36.37029991 9.34041435 29.78270764 9.34624352 23.19509697 9.34884453 C20.67557016 9.35069929 18.15604405 9.35432086 15.63652229 9.35969734 C12.1210753 9.36690404 8.60567835 9.36795838 5.09022522 9.36749268 C4.03718704 9.37108795 2.98414886 9.37468323 1.89920044 9.37838745 C0.94702637 9.37701279 -0.00514771 9.37563812 -0.98617554 9.3742218 C-2.23474413 9.37560449 -2.23474413 9.37560449 -3.50853634 9.37701511 C-5.39634705 9.25396729 -5.39634705 9.25396729 -6.39634705 8.25396729 C-6.58384705 5.31646729 -6.58384705 5.31646729 -6.39634705 2.25396729 C-3.95622239 -0.18615737 -3.34469279 0.0031313 0 0 Z " fill="#f66398" transform="translate(357.39634704589844,319.74603271484375)"/>
<path d="M0 0 C0.95072891 -0.00281982 1.90145782 -0.00563965 2.8809967 -0.00854492 C4.4581974 -0.00550858 4.4581974 -0.00550858 6.06726074 -0.00241089 C7.16795395 -0.00416321 8.26864716 -0.00591553 9.4026947 -0.00772095 C13.06108145 -0.01214204 16.71942033 -0.00920056 20.37780762 -0.00582886 C22.9074708 -0.00650182 25.43713392 -0.00747178 27.96679688 -0.00872803 C33.27649611 -0.01020535 38.58617799 -0.00814394 43.89587402 -0.00338745 C50.0426172 0.00205514 56.18932721 0.00029246 62.33606958 -0.00521386 C68.23873325 -0.01029076 74.14138658 -0.00976341 80.04405212 -0.00683212 C82.56078598 -0.0061626 85.07752067 -0.00699216 87.59425354 -0.00931168 C91.10481037 -0.01183669 94.61530251 -0.00799974 98.12585449 -0.00241089 C99.17732162 -0.00443512 100.22878876 -0.00645935 101.31211853 -0.00854492 C102.26284744 -0.0057251 103.21357635 -0.00290527 104.19311523 0 C105.02419548 0.00037703 105.85527573 0.00075405 106.71154022 0.0011425 C108.59655762 0.12698364 108.59655762 0.12698364 109.59655762 1.12698364 C109.63736545 3.12656728 109.63910118 5.12743618 109.59655762 7.12698364 C106.62425517 8.82987886 104.49492009 9.37765065 101.08032227 9.38095093 C99.73027351 9.3894104 99.73027351 9.3894104 98.35295105 9.39804077 C97.37308731 9.39399231 96.39322357 9.38994385 95.38366699 9.38577271 C94.34587601 9.38927734 93.30808502 9.39278198 92.23884583 9.39639282 C88.80593186 9.40520049 85.37322371 9.39936428 81.94030762 9.39260864 C79.55664022 9.39395557 77.17297309 9.39589633 74.78930664 9.39840698 C69.79257594 9.40135694 64.79591673 9.39706465 59.79919434 9.38772583 C53.38975077 9.37633144 46.98047471 9.38289159 40.57103729 9.39487076 C35.64860773 9.40209276 30.72621798 9.39979984 25.80378723 9.39461517 C23.44025147 9.39327962 21.07671211 9.39492308 18.71318054 9.39957428 C15.41183885 9.40464501 12.11076961 9.39692133 8.80944824 9.38577271 C7.8295845 9.38982117 6.84972076 9.39386963 5.84016418 9.39804077 C4.94013168 9.39240112 4.04009918 9.38676147 3.11279297 9.38095093 C2.33262062 9.38019688 1.55244827 9.37944283 0.74863434 9.37866592 C-1.66885312 9.09594424 -3.30410741 8.32973725 -5.40344238 7.12698364 C-5.44598595 5.12743618 -5.44425021 3.12656728 -5.40344238 1.12698364 C-3.81726998 -0.45918876 -2.20039117 0.00099822 0 0 Z " fill="#f66398" transform="translate(356.4034423828125,236.87301635742188)"/>
<path d="M0 0 C3.1328125 -0.37231445 3.1328125 -0.37231445 7.125 -0.36328125 C7.8277002 -0.36377975 8.53040039 -0.36427826 9.25439453 -0.36479187 C10.74058865 -0.36245061 12.22678667 -0.35271888 13.71289062 -0.33618164 C15.99124505 -0.31259065 18.26842953 -0.31561934 20.546875 -0.32226562 C31.72092744 -0.27907256 31.72092744 -0.27907256 34 2 C34.39987122 6.56101998 34.32902392 11.13628239 34.31567383 15.71289062 C34.31251197 17.9913709 34.33597517 20.26855521 34.36132812 22.546875 C34.36360088 23.98958169 34.36430473 25.43229188 34.36328125 26.875 C34.36626221 28.19242187 34.36924316 29.50984375 34.37231445 30.8671875 C34.24945068 31.90101563 34.12658691 32.93484375 34 34 C29.21312732 37.19124845 23.71828759 36.33326278 18.12109375 36.31567383 C16.0072895 36.31251091 13.89488154 36.33599013 11.78125 36.36132812 C10.43750176 36.36360095 9.09374977 36.36430469 7.75 36.36328125 C6.52796875 36.36626221 5.3059375 36.36924316 4.046875 36.37231445 C1 36 1 36 -0.89916992 34.89916992 C-2.5705001 32.01576397 -2.37135846 29.56121889 -2.36328125 26.25 C-2.36377975 25.59547852 -2.36427826 24.94095703 -2.36479187 24.26660156 C-2.36245457 22.88473469 -2.35274615 21.50286331 -2.33618164 20.12109375 C-2.3125829 18.00742476 -2.3156232 15.89501732 -2.32226562 13.78125 C-2.27925898 3.41888847 -2.27925898 3.41888847 0 0 Z M7 9 C7 14.94 7 20.88 7 27 C12.94 27 18.88 27 25 27 C25 21.06 25 15.12 25 9 C19.06 9 13.12 9 7 9 Z " fill="#f66398" transform="translate(302,307)"/>
<path d="M0 0 C1.0186338 -0.00074776 1.0186338 -0.00074776 2.05784607 -0.00151062 C3.49098645 0.00082672 4.92413118 0.01053539 6.35717773 0.02709961 C8.55424544 0.05073447 10.75010275 0.04765358 12.94726562 0.04101562 C23.71694742 0.08413492 23.71694742 0.08413492 25.99609375 2.36328125 C26.25488281 5.49609375 26.25488281 5.49609375 26.26171875 9.48828125 C26.26458893 10.54233154 26.26458893 10.54233154 26.26751709 11.61767578 C26.2688785 13.10384479 26.26518507 14.5900257 26.25683594 16.07617188 C26.24613529 18.35443771 26.25673214 20.63191502 26.26953125 22.91015625 C26.26820965 24.35286633 26.26564724 25.79557591 26.26171875 27.23828125 C26.25946289 28.55570313 26.25720703 29.873125 26.25488281 31.23046875 C25.99609375 34.36328125 25.99609375 34.36328125 23.99609375 36.36328125 C19.59608038 36.76276596 15.18151213 36.69229686 10.76538086 36.67895508 C8.57029454 36.67579808 6.3765599 36.69923886 4.18164062 36.72460938 C2.78776212 36.72688268 1.39387998 36.72758572 0 36.7265625 C-1.27029053 36.72954346 -2.54058105 36.73252441 -3.84936523 36.7355957 C-7.00390625 36.36328125 -7.00390625 36.36328125 -8.91674805 35.26245117 C-10.56685592 32.37985761 -10.39320239 29.91461632 -10.40234375 26.61328125 C-10.40521393 25.95875977 -10.40808411 25.30423828 -10.41104126 24.62988281 C-10.41307993 23.24803806 -10.40756371 21.86616432 -10.39501953 20.484375 C-10.37896061 18.37043675 -10.39487226 16.25841012 -10.4140625 14.14453125 C-10.41208003 12.80077703 -10.40823627 11.45702401 -10.40234375 10.11328125 C-10.39895996 8.89125 -10.39557617 7.66921875 -10.39208984 6.41015625 C-10.00390625 3.36328125 -10.00390625 3.36328125 -8.91674805 1.46411133 C-5.96224931 -0.23618667 -3.3836016 -0.00794021 0 0 Z M-1.00390625 9.36328125 C-1.00390625 15.30328125 -1.00390625 21.24328125 -1.00390625 27.36328125 C4.93609375 27.36328125 10.87609375 27.36328125 16.99609375 27.36328125 C16.99609375 21.42328125 16.99609375 15.48328125 16.99609375 9.36328125 C11.05609375 9.36328125 5.11609375 9.36328125 -1.00390625 9.36328125 Z " fill="#f66398" transform="translate(310.00390625,222.63671875)"/>
<path d="M0 0 C0.7027002 -0.00191345 1.40540039 -0.0038269 2.12939453 -0.00579834 C3.61556354 -0.00715975 5.10174445 -0.00346632 6.58789062 0.00488281 C8.86615646 0.01558346 11.14363377 0.00498661 13.421875 -0.0078125 C14.86458508 -0.0064909 16.30729466 -0.00392849 17.75 0 C19.06742187 0.00225586 20.38484375 0.00451172 21.7421875 0.00683594 C24.875 0.265625 24.875 0.265625 26.875 2.265625 C27.27448471 6.66563837 27.20401561 11.08020662 27.19067383 15.49633789 C27.18751683 17.69142421 27.21095761 19.88515885 27.23632812 22.08007812 C27.23860143 23.47395663 27.23930447 24.86783877 27.23828125 26.26171875 C27.24126221 27.53200928 27.24424316 28.8022998 27.24731445 30.11108398 C26.875 33.265625 26.875 33.265625 25.77416992 35.1784668 C22.89157636 36.82857467 20.42633507 36.65492114 17.125 36.6640625 C16.47047852 36.66693268 15.81595703 36.66980286 15.14160156 36.67276001 C13.75975681 36.67479868 12.37788307 36.66928246 10.99609375 36.65673828 C8.8821555 36.64067936 6.77012887 36.65659101 4.65625 36.67578125 C3.31249578 36.67379878 1.96874276 36.66995502 0.625 36.6640625 C-0.59703125 36.66067871 -1.8190625 36.65729492 -3.078125 36.65380859 C-6.125 36.265625 -6.125 36.265625 -8.02416992 35.1784668 C-9.72446792 32.22396806 -9.49622146 29.64532035 -9.48828125 26.26171875 C-9.48877975 25.58262955 -9.48927826 24.90354034 -9.48979187 24.20387268 C-9.48745453 22.7707323 -9.47774586 21.33758757 -9.46118164 19.90454102 C-9.43754678 17.70747331 -9.44062767 15.511616 -9.44726562 13.31445312 C-9.39402207 0.01608565 -9.39402207 0.01608565 0 0 Z M-0.125 9.265625 C-0.125 15.205625 -0.125 21.145625 -0.125 27.265625 C5.815 27.265625 11.755 27.265625 17.875 27.265625 C17.875 21.325625 17.875 15.385625 17.875 9.265625 C11.935 9.265625 5.995 9.265625 -0.125 9.265625 Z " fill="#f66398" transform="translate(312.125,147.734375)"/>
</svg>