<svg version="1.1" xmlns="http://www.w3.org/2000/svg" width="512px" height="512px" transform="rotate(0) scale(1, 1)">
<path d="M0 0 C1.02351563 -0.00128906 2.04703125 -0.00257812 3.1015625 -0.00390625 C11.78364271 1.498363 17.15598884 6.76314585 23.13012695 12.80004883 C23.96528336 13.62819595 24.80043976 14.45634308 25.66090393 15.30958557 C28.40514437 18.03629174 31.13457619 20.77728489 33.86328125 23.51953125 C35.77131703 25.42667507 37.68174305 27.3314195 39.59184265 29.23649597 C43.58740809 33.22480306 47.57450843 37.22142678 51.55688477 41.22290039 C56.15172669 45.83952249 60.76082089 50.44153827 65.37755233 55.03626233 C69.35285768 58.99337971 73.32027006 62.95828388 77.28126305 66.92972773 C79.64191933 69.29659842 82.00587003 71.65987556 84.37548256 74.01780128 C87.01574456 76.64789185 89.64282278 79.29048834 92.2668457 81.93676758 C93.04765503 82.70947998 93.82846436 83.48219238 94.63293457 84.27832031 C100.53936664 90.27777426 103.80174558 95.22641842 103.8125 103.9375 C103.83183594 104.97648437 103.85117187 106.01546875 103.87109375 107.0859375 C102.5625699 116.25590777 97.69282183 121.93430575 91.125 128.125 C90.37992188 128.84751953 89.63484375 129.57003906 88.8671875 130.31445312 C87.04743347 132.07588171 85.21705235 133.82445512 83.375 135.5625 C84.484519 135.56396656 85.59403801 135.56543312 86.7371788 135.56694412 C113.71034839 135.60350796 140.68339351 135.66291653 167.65645981 135.74640274 C180.70033734 135.78624459 193.74415409 135.81861092 206.78808594 135.83349609 C218.15463606 135.84648595 229.52105273 135.87338226 240.8875277 135.91711307 C246.90831144 135.93978789 252.92893021 135.95540708 258.94976044 135.95438385 C264.61327946 135.95364079 270.27643298 135.97144866 275.93985748 136.00366783 C278.02158442 136.01220739 280.10335216 136.01388946 282.18508911 136.00830269 C285.02175328 136.00170223 287.857241 136.01948816 290.69378662 136.04351807 C291.52258009 136.03575765 292.35137355 136.02799723 293.20528197 136.02000165 C296.71310448 136.0728124 298.93625423 136.25822914 301.85507584 138.28243637 C304.89912531 142.84886585 304.42733757 146.62238377 303.54856873 151.8818512 C303.33984634 153.15772095 303.13112396 154.4335907 302.91607666 155.74812317 C302.67655563 157.15575912 302.43686482 158.56336619 302.19702148 159.97094727 C301.94998567 161.45992593 301.70373403 162.94903488 301.45820618 164.43826294 C300.78805004 168.48913468 300.10690253 172.53809043 299.42382693 176.58680081 C298.70487219 180.85969528 297.99606825 185.13427312 297.28614807 189.40867615 C295.93334078 197.54437162 294.57145766 205.67852069 293.20632273 213.81215566 C291.67767034 222.92260079 290.15882545 232.03467098 288.64098251 241.14692223 C286.779131 252.3235356 284.91544207 263.49983974 283.04454041 274.67494202 C282.91223453 275.46562932 282.77992866 276.25631663 282.64361352 277.07096416 C281.9926713 280.95983271 281.34013805 284.84842228 280.6844244 288.7364893 C279.48154481 295.87911864 278.29489414 303.02344359 277.16009396 310.17724925 C276.62931793 313.51937185 276.09104272 316.86026917 275.55236447 320.20112598 C275.29903618 321.7865059 275.04952075 323.37250043 274.8040818 324.95912087 C274.46514734 327.14906507 274.11327626 329.33657775 273.75868225 331.52403259 C273.56317811 332.76620513 273.36767397 334.00837767 273.16624546 335.2881918 C272.36720909 338.5947401 271.36373529 340.81877126 269.375 343.5625 C266.90526814 344.79736593 265.28058566 344.69120669 262.51733589 344.69672108 C261.4847355 344.70117892 260.45213511 344.70563676 259.38824379 344.71022969 C258.24507726 344.71004533 257.10191073 344.70986097 255.92410278 344.70967102 C254.7164847 344.71334771 253.50886661 344.7170244 252.26465404 344.7208125 C248.90201567 344.72995146 245.53942615 344.73455167 242.17677999 344.73720181 C238.5543385 344.74110038 234.9319112 344.75067893 231.30947876 344.75941467 C222.55679246 344.77919038 213.80410498 344.78924608 205.05140191 344.79814246 C200.93264236 344.80252301 196.81388411 344.80789037 192.69512558 344.81313133 C179.00914082 344.8301437 165.32315687 344.84463926 151.63716316 344.85188007 C148.0844434 344.85379006 144.53172364 344.85571038 140.97900391 344.85766602 C139.65444131 344.85839163 139.65444131 344.85839163 138.30311988 344.8591319 C123.98901976 344.86743743 109.67500307 344.8927831 95.3609394 344.92524669 C80.67521392 344.95828255 65.98953089 344.97632563 51.30376804 344.97952431 C43.0540537 344.9816925 34.80446107 344.99048613 26.55478287 345.01598549 C19.531055 345.03764502 12.50747839 345.04576639 5.48372091 345.03601871 C1.89837145 345.03146029 -1.68666563 345.03344885 -5.27197266 345.05278015 C-9.15482492 345.07353554 -13.03724202 345.0634707 -16.9201355 345.05024719 C-18.05884059 345.06121644 -19.19754568 345.07218568 -20.37075698 345.08348733 C-21.40857287 345.07490644 -22.44638876 345.06632555 -23.51565361 345.05748463 C-24.41222833 345.05846144 -25.30880304 345.05943824 -26.23254669 345.06044465 C-29.43568184 344.39377166 -30.61246441 343.09473538 -32.625 340.5625 C-33.43421339 337.72563124 -34.00120124 335.10920284 -34.46777344 332.21337891 C-34.70573954 330.85918067 -34.70573954 330.85918067 -34.94851303 329.47762489 C-35.52353329 326.17518167 -36.07339378 322.86893252 -36.625 319.5625 C-36.97375447 317.5219356 -37.32518365 315.48184318 -37.67688632 313.44178498 C-39.37516283 303.58985169 -41.0333302 293.73129317 -42.68459034 283.871387 C-43.14458242 281.12480803 -43.60504118 278.37830763 -44.06560516 275.63182449 C-45.51173327 267.00653492 -46.95571552 258.38088979 -48.39685273 249.75476491 C-50.05143583 239.85139064 -51.71354878 229.94931774 -53.38193727 220.04826009 C-54.67917572 212.3468668 -55.96953153 204.64433966 -57.2547586 196.94093287 C-58.01941249 192.35873462 -58.78693971 187.77706372 -59.56177521 183.19657516 C-60.28869141 178.89832526 -61.00701309 174.59872432 -61.71893311 170.297966 C-61.98027041 168.72818919 -62.24461695 167.15890967 -62.51232147 165.59020615 C-66.31460225 143.27968488 -66.31460225 143.27968488 -62.97753906 137.91308594 C-60.12939336 136.27797365 -58.26288416 136.02288051 -54.984375 135.953125 C-53.91445312 135.92089844 -52.84453125 135.88867188 -51.7421875 135.85546875 C-50.63101563 135.84128906 -49.51984375 135.82710937 -48.375 135.8125 C-47.24835938 135.78285156 -46.12171875 135.75320312 -44.9609375 135.72265625 C-42.18221979 135.65201088 -39.40433852 135.59928723 -36.625 135.5625 C-37.38548393 134.81533974 -37.38548393 134.81533974 -38.16133118 134.05308533 C-42.95324815 129.34154184 -47.73532543 124.62025447 -52.50677204 119.88797665 C-54.95977521 117.45578803 -57.41633227 115.02743576 -59.8815918 112.60766602 C-62.72001622 109.82128838 -65.54195717 107.01853896 -68.36328125 104.21484375 C-69.24462234 103.3541478 -70.12596344 102.49345184 -71.03401184 101.60667419 C-77.32247409 95.32052713 -81.03319926 90.46449928 -81.125 81.25 C-81.1559375 80.22261719 -81.186875 79.19523437 -81.21875 78.13671875 C-79.26085605 66.35071243 -70.68059494 58.8795483 -62.58203125 50.85546875 C-61.28960968 49.55967186 -59.9979305 48.26313414 -58.70695496 46.96589661 C-56.00921165 44.26081588 -53.302722 41.56489714 -50.58959961 38.87524414 C-47.13074109 35.44487034 -43.69482244 31.99253097 -40.26518726 28.53296947 C-37.6052128 25.85483763 -34.93333257 23.18883858 -32.25781822 20.5262394 C-30.98683448 19.25856633 -29.7194856 17.98723709 -28.45603371 16.71205711 C-11.61594311 -0.24996333 -11.61594311 -0.24996333 0 0 Z M-11.625 24.5625 C-7.10731594 29.97763654 -2.3216332 35.00320184 2.67529297 39.97631836 C3.48571548 40.7868869 4.296138 41.59745544 5.13111877 42.43258667 C7.79077634 45.09155167 10.45395054 47.74696431 13.1171875 50.40234375 C14.96971113 52.25300087 16.82201304 54.10387997 18.67410278 55.95497131 C23.0386848 60.31645677 27.40580752 64.67538886 31.77386963 69.03338867 C36.75051106 73.99881671 41.72428177 78.9671161 46.69782424 83.93564785 C56.92037869 94.14777587 67.14649833 104.35632877 77.375 114.5625 C81.16994309 112.7785524 83.6886781 110.84578232 86.375 107.5625 C87.37673536 104.69490408 87.37673536 104.69490408 86.375 101.5625 C82.09789767 95.83718813 76.77883168 90.82174319 71.72729492 85.78540039 C70.99796753 85.05432068 70.26864014 84.32324097 69.51721191 83.57000732 C67.13245449 81.18088753 64.74410471 78.79539781 62.35546875 76.41015625 C60.68860001 74.7426133 59.02187969 73.07492197 57.3553009 71.40708923 C53.87626615 67.9265855 50.39544214 64.44788391 46.91333008 60.97045898 C42.44306929 56.5059217 37.97734859 52.03687422 33.51293468 47.56649113 C30.07905732 44.12900922 26.64281297 40.69390143 23.20583534 37.25951958 C21.55720869 35.61156111 19.9093276 33.96285644 18.26219749 32.31340218 C15.96911423 30.0177913 13.67287081 27.72538994 11.37573242 25.43383789 C10.6926149 24.74869614 10.00949738 24.06355438 9.30567932 23.35765076 C8.37013718 22.42633835 8.37013718 22.42633835 7.41569519 21.47621155 C6.87355472 20.9344481 6.33141424 20.39268465 5.77284527 19.83450413 C3.79526731 18.0349578 2.39186309 17.56571202 -0.25 17.0625 C-5.33134445 17.81529177 -8.07178549 21.02732211 -11.625 24.5625 Z M-28.2109375 41.01904297 C-29.34716553 42.15054276 -29.34716553 42.15054276 -30.50634766 43.30490112 C-31.32925293 44.12983063 -32.1521582 44.95476013 -33 45.8046875 C-33.83966309 46.64339386 -34.67932617 47.48210022 -35.54443359 48.34622192 C-37.32447361 50.12557966 -39.10324432 51.90620795 -40.88085938 53.68798828 C-43.60956704 56.42203684 -46.34354437 59.15073326 -49.078125 61.87890625 C-50.80240401 63.60384617 -52.52637275 65.32909632 -54.25 67.0546875 C-55.48435791 68.28600906 -55.48435791 68.28600906 -56.74365234 69.54220581 C-57.5011377 70.30284332 -58.25862305 71.06348083 -59.0390625 71.84716797 C-59.7088916 72.51779266 -60.3787207 73.18841736 -61.06884766 73.87936401 C-63.04201769 76.01354676 -63.57849805 77.31836479 -64.125 80.1875 C-63.57630238 83.89120895 -63.05897889 84.49156188 -60.59790039 87.109375 C-57.82251419 90.16567074 -55.27273346 93.28766039 -52.81030273 96.6015625 C-31.58825983 124.97491079 -31.58825983 124.97491079 -0.46240902 139.13355827 C8.24496688 140.17563649 16.93654145 140.16816359 25.6875 139.875 C26.470219 139.85328735 27.252938 139.83157471 28.05937576 139.8092041 C33.3405403 139.65202531 38.59703123 139.34907006 43.86328125 138.92578125 C44.88916981 138.85236228 44.88916981 138.85236228 45.93578339 138.7774601 C52.9901968 138.21607045 58.13357339 137.51747034 63.28198242 132.41479492 C64.3470552 131.15880865 65.39219857 129.88385646 66.375 128.5625 C61.83259086 123.11781675 57.01774754 118.06252585 51.9987793 113.05688477 C51.1802095 112.23656265 50.36163971 111.41624054 49.51826477 110.57106018 C46.8310809 107.87949974 44.14028558 105.19158401 41.44921875 102.50390625 C39.57674256 100.63075621 37.70441454 98.757459 35.83222961 96.88401794 C31.9194888 92.96946426 28.00465802 89.05701003 24.08862305 85.14575195 C19.55708482 80.6196775 15.029191 76.08998107 10.50312871 71.55843121 C6.1441962 67.19442524 1.78247114 62.8332218 -2.58046532 58.47321892 C-4.43645938 56.61789398 -6.29170528 54.7618203 -8.14620399 52.90500069 C-10.72698307 50.32169893 -13.31091657 47.74159565 -15.89575195 45.16235352 C-16.66819244 44.38788879 -17.44063293 43.61342407 -18.23648071 42.81549072 C-18.93597336 42.1188179 -19.635466 41.42214508 -20.3561554 40.70436096 C-20.96688558 40.09400781 -21.57761576 39.48365465 -22.20685291 38.85480595 C-24.9723424 36.3347158 -25.91346898 38.72430328 -28.2109375 41.01904297 Z M-46.625 152.5625 C-45.09820233 163.25008366 -43.55626326 173.94055207 -41.625 184.5625 C64.635 184.5625 170.895 184.5625 280.375 184.5625 C283.79216517 168.64098695 283.79216517 168.64098695 285.375 152.5625 C175.815 152.5625 66.255 152.5625 -46.625 152.5625 Z M-38.625 200.5625 C-36.77798239 213.49162329 -34.8981845 226.38208904 -32.7421875 239.2578125 C-32.47968704 240.83484595 -32.21733073 242.4119034 -31.95510864 243.98898315 C-31.41386407 247.24080402 -30.87091796 250.49233449 -30.32666016 253.74365234 C-29.62955121 257.90896092 -28.93692709 262.07500159 -28.24551201 266.24125862 C-27.70853047 269.47396017 -27.16924406 272.70627388 -26.62924576 275.93847275 C-26.37256653 277.47655218 -26.11660527 279.01475162 -25.86138535 280.55307388 C-25.50743362 282.6843837 -25.15037938 284.81515075 -24.79248047 286.94580078 C-24.59057098 288.15487091 -24.3886615 289.36394104 -24.18063354 290.60964966 C-23.68589704 293.60537594 -23.68589704 293.60537594 -22.625 296.5625 C71.095 296.5625 164.815 296.5625 261.375 296.5625 C263.83035222 283.67190087 266.24402969 270.80731933 268.390625 257.8671875 C268.65381019 256.29010711 268.91713952 254.71305077 269.18060303 253.13601685 C269.72321129 249.88471996 270.26411638 246.63314602 270.80371094 243.38134766 C271.49522586 239.21490827 272.19122269 235.04923125 272.88843155 230.88374138 C273.42891831 227.65163113 273.96709981 224.41914037 274.50457001 221.18652725 C274.76062419 219.64820589 275.01739674 218.11000391 275.27490997 216.57192612 C275.63126377 214.44140001 275.9845083 212.31038141 276.33691406 210.17919922 C276.53802795 208.97012909 276.73914185 207.76105896 276.9463501 206.51535034 C277.44682952 203.56498647 277.44682952 203.56498647 277.375 200.5625 C173.095 200.5625 68.815 200.5625 -38.625 200.5625 Z M-20.625 312.5625 C-19.635 317.8425 -18.645 323.1225 -17.625 328.5625 C72.795 328.5625 163.215 328.5625 256.375 328.5625 C258.5240712 318.60599839 258.5240712 318.60599839 258.375 312.5625 C166.305 312.5625 74.235 312.5625 -20.625 312.5625 Z " fill="#fdd261" transform="translate(184.625,63.4375)"/>
<path d="M0 0 C0.69641602 -0.00540298 1.39283203 -0.01080597 2.11035156 -0.01637268 C4.40733631 -0.02885767 6.70306698 -0.01237216 9 0.00561523 C10.598959 0.00546024 12.19791838 0.00397117 13.796875 0.00120544 C17.14600253 -0.00017843 20.49470176 0.01237717 23.84375 0.03515625 C28.13465975 0.0635412 32.42485791 0.06080359 36.71582031 0.04806614 C40.01698881 0.04110795 43.3179931 0.04889977 46.61914062 0.06132317 C48.20116547 0.06583634 49.78320795 0.06617563 51.36523438 0.06225777 C53.57718986 0.05934408 55.78816808 0.07585842 58 0.09765625 C59.258125 0.10305923 60.51625 0.10846222 61.8125 0.11402893 C65.46169752 0.557863 66.49096291 0.85447254 69 3.50170898 C70.02715763 6.4104654 70.51000512 9.38479657 71.02081299 12.42102051 C71.26614678 13.75812773 71.26614678 13.75812773 71.51643682 15.12224722 C72.02546777 17.91300832 72.51269918 20.70708334 73 23.50170898 C73.30213037 25.15839767 73.60622384 26.81472982 73.91249847 28.47065735 C74.85261965 33.57416174 75.76074259 38.68311465 76.66699219 43.79272461 C77.01223289 45.73007734 77.35765159 47.66739836 77.70323181 49.60469055 C78.62856302 54.79539572 79.55119322 59.98657728 80.47309399 65.17789268 C81.24539358 69.52550757 82.01896938 73.87289502 82.79250741 78.22028971 C84.61547052 88.46592079 86.43613265 98.71195891 88.25537109 108.95825195 C90.13109559 119.52242151 92.01098126 130.08584483 93.89282298 140.64892626 C95.5131988 149.74526821 97.1309236 158.84207891 98.74652791 167.93926954 C99.70959751 173.3619572 100.67370041 178.78445603 101.64040375 184.20649719 C102.54636801 189.28847912 103.4490319 194.37103618 104.349123 199.45406151 C104.68010789 201.31995387 105.01227378 203.18563717 105.34569359 205.05109596 C105.79970322 207.59230936 106.24948317 210.1342358 106.69818115 212.6763916 C106.83163586 213.41761466 106.96509058 214.15883771 107.10258937 214.92252207 C107.67616241 218.1966059 108 221.16180429 108 224.50170898 C211.29 224.50170898 314.58 224.50170898 421 224.50170898 C421 229.78170898 421 235.06170898 421 240.50170898 C413.74 240.83170898 406.48 241.16170898 399 241.50170898 C400.2065625 243.85295898 400.2065625 243.85295898 401.4375 246.25170898 C406.21298934 255.55779078 406.34673977 266.62197814 404.3515625 276.81420898 C400.65715573 287.92900541 392.75144442 296.2136759 382.61328125 301.82202148 C372.8074692 306.11675693 360.08748785 306.23688436 349.9375 302.93920898 C339.38952337 298.31942136 331.18228762 290.11218562 326.5625 279.56420898 C323.1368028 269.02017994 323.63314846 256.73659096 327.9296875 246.56811523 C329 244.50170898 329 244.50170898 331 241.50170898 C290.08 241.50170898 249.16 241.50170898 207 241.50170898 C209.475 246.45170898 209.475 246.45170898 212 251.50170898 C214.64490234 262.08131833 214.34150047 274.84591967 209 284.50170898 C203.37977112 293.51445944 195.47361334 300.53137891 185.28515625 303.84155273 C173.30624065 306.24873078 161.08878428 305.5457651 150.58203125 298.99389648 C141.77914371 292.65345822 135.16338055 284.26740744 133 273.50170898 C131.76550291 262.04546792 132.45225499 251.3233265 139 241.50170898 C137.74864258 241.48712646 136.49728516 241.47254395 135.20800781 241.45751953 C130.56351197 241.39952971 125.91950061 241.32229668 121.27539062 241.23925781 C119.26570501 241.20601172 117.25592609 241.17797879 115.24609375 241.15527344 C112.35636653 241.12172176 109.46749407 241.06940561 106.578125 241.01342773 C105.68007141 241.00703781 104.78201782 241.00064789 103.85675049 240.99406433 C102.5958963 240.96437309 102.5958963 240.96437309 101.30957031 240.93408203 C100.57232727 240.92297897 99.83508423 240.91187592 99.07550049 240.9004364 C96.20758383 240.34947676 95.01545251 239.64676107 93 237.50170898 C92.17875528 234.82519757 91.63002735 232.3954906 91.17089844 229.65161133 C90.93347239 228.35851579 90.93347239 228.35851579 90.69124985 227.0392971 C90.323936 225.02419449 89.9648038 223.00759107 89.61186218 220.98992157 C88.93595329 217.13658012 88.23560166 213.28793004 87.53234863 209.43951416 C85.91221348 200.54927923 84.32337516 191.65355258 82.73848057 182.75697756 C82.2618258 180.08195006 81.78460916 177.40702339 81.30721283 174.73212814 C79.63858774 165.3822852 77.97231343 156.03202662 76.30810547 146.68139648 C74.76063047 137.98705183 73.20764187 129.29370373 71.65222192 120.60077727 C70.31090156 113.10290574 68.97355635 105.60433216 67.63927436 98.10520494 C66.84477202 93.64026764 66.04864134 89.17563583 65.24842072 84.71171951 C64.49854202 80.52792296 63.75360866 76.34327581 63.01246834 72.15792274 C62.74014184 70.62494855 62.46605135 69.09228649 62.19005394 67.55996895 C61.81324634 65.46638691 61.44286145 63.37176462 61.07403564 61.27676392 C60.86537495 60.10625299 60.65671425 58.93574207 60.4417305 57.72976112 C60.01437758 54.60677659 59.91800312 51.64901334 60 48.50170898 C58.75425201 48.51503265 58.75425201 48.51503265 57.4833374 48.52862549 C49.65565201 48.60878249 41.8281045 48.66967889 34.000103 48.70895767 C29.97563923 48.72983031 25.95151465 48.75814133 21.92724609 48.8034668 C18.04336464 48.84693719 14.15980938 48.87084852 10.27570343 48.88121796 C8.79409907 48.88860729 7.31251251 48.90303716 5.83104706 48.92462921 C3.75513679 48.9536811 1.68057313 48.95766455 -0.39550781 48.95581055 C-1.57687317 48.96469299 -2.75823853 48.97357544 -3.97540283 48.98272705 C-7.65448652 48.39762245 -8.82670135 47.48814156 -11 44.50170898 C-11.50793457 42.52905273 -11.50793457 42.52905273 -11.51757812 40.43920898 C-11.53018677 39.6515918 -11.54279541 38.86397461 -11.55578613 38.05249023 C-11.54768921 37.21073242 -11.53959229 36.36897461 -11.53125 35.50170898 C-11.5350769 34.62901367 -11.53890381 33.75631836 -11.54284668 32.85717773 C-11.5455649 31.01471806 -11.53820994 29.17221974 -11.52148438 27.32983398 C-11.50007248 24.51124965 -11.52128801 21.69521414 -11.546875 18.87670898 C-11.54423171 17.0850367 -11.53910669 15.29336599 -11.53125 13.50170898 C-11.53934692 12.65995117 -11.54744385 11.81819336 -11.55578613 10.95092773 C-11.54317749 10.16331055 -11.53056885 9.37569336 -11.51757812 8.56420898 C-11.51439575 7.87456055 -11.51121338 7.18491211 -11.50793457 6.47436523 C-9.95048385 0.4257222 -5.51877449 0.0007289 0 0 Z M5 16.50170898 C5 21.78170898 5 27.06170898 5 32.50170898 C22.16 32.50170898 39.32 32.50170898 57 32.50170898 C56.01 27.22170898 55.02 21.94170898 54 16.50170898 C37.83 16.50170898 21.66 16.50170898 5 16.50170898 Z M153.4453125 251.40405273 C149.32022105 257.39100979 149.28391858 263.45106111 150 270.50170898 C151.77342433 277.14643813 156.4466647 281.67538857 162 285.50170898 C167.99887004 288.44233155 174.8828353 288.60054686 181.3125 286.88452148 C187.44132861 284.17921823 192.23952792 279.09307204 195.171875 273.11108398 C197.11359614 266.99283058 197.0598191 259.91477516 194.3125 254.06420898 C191.00625976 248.48059347 186.2678112 243.5688707 180 241.50170898 C168.16195266 240.00494438 161.08826117 242.46358022 153.4453125 251.40405273 Z M345.4453125 251.40405273 C341.32022105 257.39100979 341.28391858 263.45106111 342 270.50170898 C343.77342433 277.14643813 348.4466647 281.67538857 354 285.50170898 C359.99887004 288.44233155 366.8828353 288.60054686 373.3125 286.88452148 C379.44132861 284.17921823 384.23952792 279.09307204 387.171875 273.11108398 C389.11359614 266.99283058 389.0598191 259.91477516 386.3125 254.06420898 C383.00625976 248.48059347 378.2678112 243.5688707 372 241.50170898 C360.16195266 240.00494438 353.08826117 242.46358022 345.4453125 251.40405273 Z " fill="#fdd261" transform="translate(35,199.498291015625)"/>
<path d="M0 0 C1.55847656 -0.02900391 1.55847656 -0.02900391 3.1484375 -0.05859375 C14.81994701 1.60689131 21.58888912 9.69834197 29.48828125 17.70703125 C30.81017302 19.03063657 32.13295772 20.35335065 33.45658875 21.67521667 C36.21863009 24.4389057 38.97199126 27.21086648 41.71899414 29.98950195 C45.23020191 33.5404235 48.75883853 37.07338324 52.29369831 40.60074329 C55.02338974 43.32735725 57.74540545 46.06152841 60.46501732 48.79819298 C61.76319581 50.1033725 63.06330301 51.40663674 64.36541176 52.70789528 C66.1864774 54.53076997 67.9973971 56.36316594 69.8059082 58.19848633 C70.33843201 58.72807953 70.87095581 59.25767273 71.4196167 59.80331421 C77.36045293 65.87972582 80.70215426 72.04107392 80.9375 80.625 C80.99357422 81.94564453 80.99357422 81.94564453 81.05078125 83.29296875 C79.83003976 92.30853667 74.66920419 98.1187097 68.38745117 104.30615234 C67.55930405 105.14145477 66.73115692 105.9767572 65.87791443 106.83737183 C63.15351677 109.5785957 60.41146584 112.30133927 57.66796875 115.0234375 C55.76032625 116.92954599 53.85584142 118.83880004 51.95100403 120.74771118 C47.9642905 124.73893266 43.96755111 128.71989281 39.96459961 132.69482422 C35.34650477 137.28084008 30.74469118 141.88271354 26.15123767 146.49340093 C21.71708275 150.94345299 17.27166443 155.38208734 12.8210392 159.81566238 C10.93353068 161.69632494 9.05067817 163.58131781 7.16969872 165.46854782 C4.53968859 168.10401487 1.89710904 170.72619595 -0.74926758 173.34521484 C-1.52197998 174.12445313 -2.29469238 174.90369141 -3.09082031 175.70654297 C-9.32321809 181.82992587 -14.29804344 184.86486 -23.3125 184.875 C-24.45589844 184.89433594 -25.59929687 184.91367188 -26.77734375 184.93359375 C-34.25305479 183.90274109 -39.52768296 179.88277296 -44.71166992 174.63427734 C-45.2900209 174.06454193 -45.86837189 173.49480652 -46.46424866 172.9078064 C-48.35489251 171.03968479 -50.23060951 169.15739043 -52.10546875 167.2734375 C-53.42676319 165.95738535 -54.74857488 164.64185234 -56.07087708 163.32681274 C-58.83348946 160.57457984 -61.58853249 157.81503599 -64.33862305 155.05029297 C-67.84698657 151.52476196 -71.37525684 148.01995619 -74.90975475 144.52065086 C-77.64259017 141.80987923 -80.3635205 139.08739556 -83.08120155 136.36143875 C-84.37664179 135.06518362 -85.67588398 133.7727156 -86.97911644 132.48429489 C-102.12227675 117.4869861 -102.12227675 117.4869861 -104.00390625 106.8984375 C-103.98199219 105.88007812 -103.96007812 104.86171875 -103.9375 103.8125 C-103.93878906 102.78898437 -103.94007813 101.76546875 -103.94140625 100.7109375 C-102.439137 92.02885729 -97.17435415 86.65651116 -91.13745117 80.68237305 C-90.30930405 79.84721664 -89.48115692 79.01206024 -88.62791443 78.15159607 C-85.90120826 75.40735563 -83.16021511 72.67792381 -80.41796875 69.94921875 C-78.51082493 68.04118297 -76.6060805 66.13075695 -74.70100403 64.22065735 C-70.71269694 60.22509191 -66.71607322 56.23799157 -62.71459961 52.25561523 C-58.09797751 47.66077331 -53.49596173 43.05167911 -48.90123767 38.43494767 C-44.94412029 34.45964232 -40.97921612 30.49222994 -37.00777227 26.53123695 C-34.64090158 24.17058067 -32.27762444 21.80662997 -29.91969872 19.43701744 C-27.28960815 16.79675544 -24.64701166 14.16967722 -22.00073242 11.5456543 C-21.22802002 10.76484497 -20.45530762 9.98403564 -19.65917969 9.17956543 C-13.65972574 3.27313336 -8.71108158 0.01075442 0 0 Z M-18.15209961 32.08520508 C-19.24871918 33.17919617 -19.24871918 33.17919617 -20.36749268 34.29528809 C-22.75661247 36.68004551 -25.14210219 39.06839529 -27.52734375 41.45703125 C-29.1948867 43.12389999 -30.86257803 44.79062031 -32.53041077 46.4571991 C-36.0109145 49.93623385 -39.48961609 53.41705786 -42.96704102 56.89916992 C-47.4315783 61.36943071 -51.90062578 65.83515141 -56.37100887 70.29956532 C-59.80849078 73.73344268 -63.24359857 77.16968703 -66.67798042 80.60666466 C-68.32593889 82.25529131 -69.97464356 83.9031724 -71.62409782 85.55030251 C-73.9197087 87.84338577 -76.21211006 90.13962919 -78.50366211 92.43676758 C-79.18880386 93.1198851 -79.87394562 93.80300262 -80.57984924 94.50682068 C-81.51116165 95.44236282 -81.51116165 95.44236282 -82.46128845 96.39680481 C-83.0030519 96.93894528 -83.54481535 97.48108576 -84.10299587 98.03965473 C-85.9025422 100.01723269 -86.37178798 101.42063691 -86.875 104.0625 C-86.12220823 109.14384445 -82.91017789 111.88428549 -79.375 115.4375 C-73.95986346 110.91981594 -68.93429816 106.1341332 -63.96118164 101.13720703 C-63.1506131 100.32678452 -62.34004456 99.516362 -61.50491333 98.68138123 C-58.84594833 96.02172366 -56.19053569 93.35854946 -53.53515625 90.6953125 C-51.68449913 88.84278887 -49.83362003 86.99048696 -47.98252869 85.13839722 C-43.62104323 80.7738152 -39.26211114 76.40669248 -34.90411133 72.03863037 C-29.93868329 67.06198894 -24.9703839 62.08821823 -20.00185215 57.11467576 C-9.78972413 46.89212131 0.41882877 36.66600167 10.625 26.4375 C8.8410524 22.64255691 6.90828232 20.1238219 3.625 17.4375 C-4.81901718 15.18576209 -12.71259774 26.62929298 -18.15209961 32.08520508 Z M22.09638882 38.84306335 C21.43361966 39.5067543 20.77085051 40.17044525 20.08799744 40.85424805 C18.95002464 41.99015884 18.95002464 41.99015884 17.7890625 43.14901733 C16.95109131 43.9905838 16.11312012 44.83215027 15.24975586 45.69921875 C14.37178848 46.5770401 13.49382111 47.45486145 12.58924866 48.35928345 C10.17434732 50.77476394 7.76169293 53.19244916 5.34998775 55.61111832 C2.83199253 58.1353457 0.31118351 60.65675978 -2.20933533 63.1784668 C-6.98537854 67.95762373 -11.75886595 72.73932508 -16.5314526 77.52193356 C-21.96350675 82.96514759 -27.39838541 88.40553764 -32.83350956 93.84568596 C-44.01716429 105.03980599 -55.19724587 116.2374878 -66.375 127.4375 C-65.4197519 128.55800635 -64.46364265 129.67777858 -63.50717163 130.79724121 C-62.97483099 131.42089317 -62.44249035 132.04454514 -61.89401817 132.68709564 C-60.11835396 134.73323995 -58.26538939 136.67649594 -56.3515625 138.59375 C-55.64 139.30660156 -54.9284375 140.01945312 -54.1953125 140.75390625 C-53.47085938 141.47449219 -52.74640625 142.19507813 -52 142.9375 C-51.28328125 143.65808594 -50.5665625 144.37867188 -49.828125 145.12109375 C-45.7324358 149.20939001 -41.52876212 153.09158245 -37.14306641 156.86572266 C-34.07673442 159.59163336 -31.38679665 162.6660015 -28.6484375 165.71484375 C-26.45658295 167.61021272 -26.45658295 167.61021272 -23.6015625 168.12890625 C-16.07076032 166.51516293 -9.91252012 158.12044813 -4.59790039 152.78979492 C-3.86682068 152.06046753 -3.13574097 151.33114014 -2.38250732 150.57971191 C0.00661247 148.19495449 2.39210219 145.80660471 4.77734375 143.41796875 C6.4448867 141.75110001 8.11257803 140.08437969 9.78041077 138.4178009 C13.2609145 134.93876615 16.73961609 131.45794214 20.21704102 127.97583008 C24.6815783 123.50556929 29.15062578 119.03984859 33.62100887 114.57543468 C37.05849078 111.14155732 40.49359857 107.70531297 43.92798042 104.26833534 C45.57593889 102.61970869 47.22464356 100.9718276 48.87409782 99.32469749 C51.1697087 97.03161423 53.46211006 94.73537081 55.75366211 92.43823242 C56.78137474 91.41355614 56.78137474 91.41355614 57.82984924 90.36817932 C58.76116165 89.43263718 58.76116165 89.43263718 59.71128845 88.47819519 C60.2530519 87.93605472 60.79481535 87.39391424 61.35299587 86.83534527 C63.1525422 84.85776731 63.62178798 83.45436309 64.125 80.8125 C63.57765221 77.11790241 62.99569119 76.38245277 60.57177734 73.71289062 C59.61546417 72.65847778 59.61546417 72.65847778 58.63983154 71.58276367 C55.47633519 68.21447523 52.24896356 64.9186251 48.9765625 61.65625 C48.27856537 60.95729614 47.58056824 60.25834229 46.86141968 59.53820801 C45.4021672 58.07828074 43.94167412 56.61959252 42.47998047 55.16210938 C40.23156917 52.91911356 37.98862089 50.67075214 35.74609375 48.421875 C34.3232377 46.99967874 32.90007202 45.57779218 31.4765625 44.15625 C30.46730209 43.14395325 30.46730209 43.14395325 29.43765259 42.11120605 C28.8196579 41.49636353 28.20166321 40.881521 27.56494141 40.24804688 C26.74722763 39.43152649 26.74722763 39.43152649 25.91299438 38.59851074 C24.03006989 36.90122417 23.99018983 37.10170667 22.09638882 38.84306335 Z " fill="#fdd261" transform="translate(407.375,7.5625)"/>
<path d="M0 0 C4.95409033 3.00021419 9.82038832 7.54413145 11.25390625 13.25390625 C11.40666016 14.36572266 11.40666016 14.36572266 11.5625 15.5 C12.30371094 15.60183594 13.04492188 15.70367187 13.80859375 15.80859375 C19.51836855 17.24211168 24.06228581 22.10840967 27.0625 27.0625 C29.84968052 33.4456411 29.64733809 41.27591171 27.9375 47.93359375 C25.29492729 53.98555715 20.07859266 58.7301547 14.234375 61.671875 C7.76035035 63.67844404 -0.61027577 63.7761327 -6.875 61 C-11.82909033 57.99978581 -16.69538832 53.45586855 -18.12890625 47.74609375 C-18.23074219 47.00488281 -18.33257812 46.26367188 -18.4375 45.5 C-19.17871094 45.39816406 -19.91992188 45.29632813 -20.68359375 45.19140625 C-25.9069883 43.88000081 -29.77251566 39.88806325 -32.8046875 35.5390625 C-36.54263345 28.63614042 -37.12782155 22.15967083 -35.15625 14.59765625 C-32.84642735 7.85648906 -27.45418349 2.50834175 -21.140625 -0.6484375 C-14.66746428 -2.68767021 -6.27246931 -2.77956483 0 0 Z M-16.8125 17.125 C-18.92456506 20.21186432 -19.04945145 21.8282913 -18.4375 25.5 C-16.11655959 29.03186584 -13.85942413 29.67085992 -9.9375 30.5625 C-7.5546875 31.25 -7.5546875 31.25 -5.4375 32.5 C-3.94593668 35.29561582 -3.09382897 37.94335497 -2.2890625 41.00390625 C-1.60920562 43.824915 -1.60920562 43.824915 1.5625 45.5 C5.17800392 45.96155369 6.89886094 45.95406883 9.9375 43.875 C12.04956506 40.78813568 12.17445145 39.1717087 11.5625 35.5 C9.24155959 31.96813416 6.98442413 31.32914008 3.0625 30.4375 C0.6796875 29.75 0.6796875 29.75 -1.4375 28.5 C-2.92906332 25.70438418 -3.78117103 23.05664503 -4.5859375 19.99609375 C-5.26579438 17.175085 -5.26579438 17.175085 -8.4375 15.5 C-12.05300392 15.03844631 -13.77386094 15.04593117 -16.8125 17.125 Z " fill="#fdd261" transform="translate(171.4375,121.5)"/>
<path d="M0 0 C5.82485779 3.51996782 10.54466582 8.98962934 12.5625 15.5 C13.36830084 23.34250349 13.68194945 31.11138341 8.5625 37.5 C4.58207743 41.75464793 1.46742436 44.68871474 -4.4375 45.5 C-4.53933594 46.24121094 -4.64117187 46.98242188 -4.74609375 47.74609375 C-6.17961168 53.45586855 -11.04590967 57.99978581 -16 61 C-22.3831411 63.78718052 -30.21341171 63.58483809 -36.87109375 61.875 C-43.07342029 59.16677165 -47.65709721 53.81802338 -50.8125 47.9375 C-52.9046892 39.77796212 -52.66721274 32.79426158 -48.75 25.25 C-45.24306702 21.07959321 -41.82348306 17.21071836 -36.5 15.625 C-35.819375 15.58375 -35.13875 15.5425 -34.4375 15.5 C-34.33566406 14.75878906 -34.23382813 14.01757812 -34.12890625 13.25390625 C-32.69538832 7.54413145 -27.82909033 3.00021419 -22.875 0 C-16.0623237 -2.97473585 -6.8126763 -2.97473585 0 0 Z M-16.625 16.9375 C-18.4572791 19.52796356 -18.81350541 20.98041871 -19.5 24 C-20.1875 26.3828125 -20.1875 26.3828125 -21.4375 28.5 C-24.23311582 29.99156332 -26.88085497 30.84367103 -29.94140625 31.6484375 C-32.762415 32.32829438 -32.762415 32.32829438 -34.4375 35.5 C-34.89905369 39.11550392 -34.89156883 40.83636094 -32.8125 43.875 C-29.72563568 45.98706506 -28.1092087 46.11195145 -24.4375 45.5 C-20.90563416 43.17905959 -20.26664008 40.92192413 -19.375 37 C-18.6875 34.6171875 -18.6875 34.6171875 -17.4375 32.5 C-14.64188418 31.00843668 -11.99414503 30.15632897 -8.93359375 29.3515625 C-6.112585 28.67170562 -6.112585 28.67170562 -4.4375 25.5 C-3.97594631 21.88449608 -3.98343117 20.16363906 -6.0625 17.125 C-9.81348995 14.55853319 -12.79583451 14.42119125 -16.625 16.9375 Z " fill="#fdd261" transform="translate(443.4375,65.5)"/>
</svg>