<svg version="1.1" xmlns="http://www.w3.org/2000/svg" width="512px" height="512px" transform="rotate(0) scale(1, 1)">
<path d="M0 0 C1.05101898 -0.00671722 2.10203796 -0.01343445 3.18490601 -0.02035522 C6.65806817 -0.03934679 10.13103719 -0.04326011 13.60424805 -0.04541016 C16.02174458 -0.05183751 18.43924033 -0.05856582 20.85673523 -0.06558228 C25.92485355 -0.07755812 30.99290369 -0.0812628 36.06103516 -0.08007812 C42.54752779 -0.07987498 49.0335821 -0.107172 55.51997089 -0.14162254 C60.5137685 -0.16388721 65.50746057 -0.16791578 70.50130272 -0.16685867 C72.89224953 -0.16921547 75.28319921 -0.17804336 77.67409706 -0.19352341 C81.02262463 -0.21317274 84.3702064 -0.20734855 87.71875 -0.1953125 C88.70136307 -0.20655151 89.68397614 -0.21779053 90.69636536 -0.22937012 C98.11617683 -0.16178008 103.4255703 1.51513982 109.0144043 6.47412109 C109.96186523 7.58980469 109.96186523 7.58980469 110.9284668 8.72802734 C111.57557617 9.46923828 112.22268555 10.21044922 112.8894043 10.97412109 C116.98926186 16.68119982 116.85022505 21.940284 116.84399414 28.73706055 C116.85406998 30.31358902 116.85406998 30.31358902 116.86434937 31.92196655 C116.88334093 35.39512872 116.88725425 38.86809774 116.8894043 42.34130859 C116.89583165 44.75880513 116.90255996 47.17630088 116.90957642 49.59379578 C116.92155226 54.66191409 116.92525694 59.72996423 116.92407227 64.7980957 C116.92386912 71.28458834 116.95116614 77.77064265 116.98561668 84.25703144 C117.00788135 89.25082904 117.01190992 94.24452111 117.01085281 99.23836327 C117.01320961 101.62931007 117.0220375 104.02025975 117.03751755 106.41115761 C117.05716688 109.75968518 117.05134269 113.10726695 117.03930664 116.45581055 C117.05054565 117.43842361 117.06178467 118.42103668 117.07336426 119.4334259 C117.00389352 127.05969514 115.17267974 132.25775446 110.1784668 138.04052734 C103.53804556 143.73231698 97.46766415 146.69641717 88.6784668 146.22802734 C81.30425542 145.22967257 74.85286688 142.40024818 70.1159668 136.54052734 C63.48502294 127.43535071 64.02065032 116.47241131 63.8659668 105.72802734 C63.83273919 104.13099504 63.79824464 102.53398857 63.76245117 100.93701172 C63.67817186 97.0549941 63.61107256 93.17302863 63.5534668 89.29052734 C62.59827148 90.19673828 61.64307617 91.10294922 60.65893555 92.03662109 C53.99951405 98.3224231 47.31940439 104.43312157 40.1628418 110.14990234 C37.36915164 112.44173199 34.71137902 114.84284547 32.0534668 117.29052734 C27.63706535 121.3503638 23.09183158 125.18376555 18.42456055 128.95068359 C15.32359528 131.47786481 12.2818458 134.06682513 9.2409668 136.66552734 C4.25322998 140.91379243 -0.83775117 145.00421197 -6.00878906 149.02661133 C-10.50214473 152.52761486 -14.91736424 156.11576338 -19.3215332 159.72802734 C-25.20757402 164.54220333 -31.2025942 169.17321502 -37.30981445 173.70263672 C-42.37702913 177.46615053 -47.35664956 181.33083756 -52.3215332 185.22802734 C-59.71267505 191.01388203 -67.25470986 196.55238699 -74.88793945 202.01318359 C-79.57105213 205.36661059 -84.19590704 208.79598815 -88.8215332 212.22802734 C-97.541223 218.6801686 -106.39913018 224.9202027 -115.31005859 231.10449219 C-117.80562912 232.84383511 -120.29620725 234.58968016 -122.78417969 236.33984375 C-134.98011991 244.91316213 -147.26980845 253.33695857 -159.6340332 261.66552734 C-160.56919769 262.29605011 -161.50436218 262.92657288 -162.46786499 263.57620239 C-176.10791317 272.76769838 -189.81278692 281.82362185 -203.73608398 290.58154297 C-206.53066842 292.34357603 -209.31588132 294.11962832 -212.09887695 295.89990234 C-224.4754115 303.81564025 -236.92084118 311.61301494 -249.4465332 319.29052734 C-250.49550781 319.9336084 -251.54448242 320.57668945 -252.62524414 321.23925781 C-270.43838266 332.14297895 -288.38862197 342.79765552 -306.4465332 353.29052734 C-307.56833984 353.9429541 -308.69014648 354.59538086 -309.84594727 355.26757812 C-321.93810941 362.29324146 -334.0713207 369.24455287 -346.2590332 376.10302734 C-347.30929687 376.69623779 -348.35956055 377.28944824 -349.44165039 377.90063477 C-350.41908203 378.44824463 -351.39651367 378.99585449 -352.40356445 379.56005859 C-353.68710815 380.28092651 -353.68710815 380.28092651 -354.99658203 381.01635742 C-363.58404952 385.48252512 -371.23094888 386.13445978 -380.4465332 383.29052734 C-386.4199831 380.24523916 -391.55203247 374.9791579 -394.6262207 368.99365234 C-396.65395597 362.31178185 -396.78516352 353.07308264 -393.7590332 346.66552734 C-387.78808845 337.04567192 -377.0862894 331.94443535 -367.3840332 326.79052734 C-356.34997466 320.84623766 -345.52697112 314.57964403 -334.72875977 308.21923828 C-331.23093336 306.16383598 -327.72620888 304.12059143 -324.2199707 302.07958984 C-310.74856169 294.23140355 -297.38091774 286.24848148 -284.16186523 277.97998047 C-280.12361659 275.46742152 -276.06464028 272.98900074 -272.0078125 270.5065918 C-246.24009416 254.72070581 -221.06221562 238.11933451 -195.95394897 221.31192017 C-191.82970534 218.55127883 -187.70323102 215.79414936 -183.57006836 213.046875 C-175.22233639 207.49780493 -166.91080543 201.91113874 -158.6965332 196.16552734 C-157.72047119 195.48449951 -156.74440918 194.80347168 -155.73876953 194.10180664 C-148.86745016 189.30082759 -142.01843958 184.47061128 -135.21899414 179.56835938 C-133.23642301 178.13905121 -131.25156648 176.71294261 -129.2668457 175.28662109 C-105.63655827 158.28421472 -82.3957759 140.79854154 -59.46313477 122.86621094 C-57.58228974 121.39660152 -55.69841764 119.93097252 -53.8137207 118.46630859 C-45.19625482 111.75289925 -36.76256499 104.82718268 -28.34887695 97.86083984 C-25.83022356 95.78178715 -23.29464321 93.72384606 -20.7590332 91.66552734 C-15.98236881 87.76591362 -11.30532024 83.75739323 -6.63720703 79.72924805 C-3.1235969 76.70405328 0.4350332 73.75309545 4.0534668 70.85302734 C10.8606156 65.33811755 17.18809152 59.30278691 23.5534668 53.29052734 C22.26098022 53.26865356 22.26098022 53.26865356 20.94238281 53.24633789 C17.70472305 53.18479865 14.46765751 53.11055952 11.23046875 53.02807617 C9.83702318 52.99509426 8.44345257 52.96698168 7.04980469 52.9440918 C-3.67533623 52.7632229 -13.04738219 52.08981778 -21.65356445 45.14990234 C-26.53197215 40.09081289 -29.09821698 33.48602689 -29.5168457 26.51708984 C-29.27370936 18.81777222 -27.12751493 12.94835825 -21.58325195 7.43896484 C-14.53417823 0.98727025 -9.38780833 -0.00860622 0 0 Z M-9.01916504 20.10412598 C-11.12421899 23.32858688 -10.98391232 25.5288735 -10.4465332 29.29052734 C-8.57944816 31.65550174 -7.12591889 32.9508345 -4.4465332 34.29052734 C-2.61921541 34.38476635 -0.78848628 34.41566785 1.04125977 34.41650391 C2.18940155 34.42031067 3.33754333 34.42411743 4.52047729 34.42803955 C5.76628571 34.42906677 7.01209412 34.43009399 8.2956543 34.43115234 C10.91415261 34.44947639 13.53264244 34.46904633 16.15112305 34.48974609 C20.29457559 34.52012771 24.43772436 34.54284604 28.58129883 34.54101562 C32.56975548 34.54007785 36.55738999 34.57883229 40.5456543 34.61865234 C41.78741425 34.61158264 43.02917419 34.60451294 44.30856323 34.597229 C46.04023239 34.62185211 46.04023239 34.62185211 47.80688477 34.64697266 C48.82233368 34.65061829 49.83778259 34.65426392 50.88400269 34.65802002 C53.5534668 35.29052734 53.5534668 35.29052734 55.90090942 37.58856201 C57.78469597 40.6685918 58.01707999 42.69384404 57.3503418 46.24755859 C55.80804358 50.20158784 52.72897339 52.60308499 49.5534668 55.29052734 C48.65241211 56.08523437 48.65241211 56.08523437 47.7331543 56.89599609 C46.44286439 58.03242297 45.14550116 59.16085104 43.8425293 60.28271484 C41.61790875 62.23400317 39.4421065 64.23205999 37.27294922 66.24462891 C32.11103755 71.03225057 26.82263121 75.56246402 21.3347168 79.97802734 C18.31325529 82.49025376 15.42927387 85.11475633 12.5534668 87.79052734 C7.97416377 92.04583348 3.2606067 96.06375424 -1.6105957 99.98583984 C-4.70241227 102.49847314 -7.73084231 105.07707374 -10.7590332 107.66552734 C-15.74671407 111.91385439 -20.83775465 116.00421467 -26.00878906 120.02661133 C-30.50214473 123.52761486 -34.91736424 127.11576338 -39.3215332 130.72802734 C-45.20757402 135.54220333 -51.2025942 140.17321502 -57.30981445 144.70263672 C-62.37702913 148.46615053 -67.35664956 152.33083756 -72.3215332 156.22802734 C-79.70896155 162.01097506 -87.24723015 167.54676097 -94.8762207 173.00537109 C-99.62398153 176.40524201 -104.31704107 179.87680687 -109.0090332 183.35302734 C-117.05020792 189.29896063 -125.18463173 195.09891278 -133.37573242 200.8359375 C-135.42631539 202.27632578 -137.47061466 203.72517723 -139.51293945 205.17724609 C-199.13294508 247.53957723 -261.22542636 286.55477412 -324.4465332 323.29052734 C-325.56833984 323.9429541 -326.69014648 324.59538086 -327.84594727 325.26757812 C-337.70754232 330.99726037 -347.57100817 336.71927005 -357.5559082 342.23193359 C-358.71058594 342.87106689 -359.86526367 343.5102002 -361.05493164 344.16870117 C-363.26802862 345.39011022 -365.48468341 346.60510124 -367.70532227 347.81274414 C-368.69242187 348.35713135 -369.67952148 348.90151855 -370.6965332 349.46240234 C-371.56793945 349.93774414 -372.4393457 350.41308594 -373.3371582 350.90283203 C-375.71513417 352.27065546 -375.71513417 352.27065546 -377.4465332 355.29052734 C-377.86908457 359.16391488 -378.01320879 361.40651343 -375.8840332 364.72802734 C-372.53679688 366.87369165 -370.38257943 366.59161751 -366.4465332 366.29052734 C-363.30009602 365.09307478 -363.30009602 365.09307478 -360.26293945 363.28271484 C-359.41070045 362.80749641 -359.41070045 362.80749641 -358.54124451 362.32267761 C-356.68866248 361.28462792 -354.84905567 360.22565523 -353.0090332 359.16552734 C-351.70692482 358.42931166 -350.40418095 357.69421889 -349.10083008 356.96020508 C-345.20368156 354.75831166 -341.32367235 352.52741313 -337.4465332 350.29052734 C-336.38031738 349.67741699 -335.31410156 349.06430664 -334.21557617 348.43261719 C-328.3262663 345.03859839 -322.46202925 341.60344728 -316.60717773 338.15039062 C-313.18233029 336.13505864 -309.75071612 334.13161513 -306.31762695 332.13037109 C-276.54854235 314.76673391 -247.27886852 296.62963111 -218.24047852 278.07080078 C-215.4366826 276.28425064 -212.6259487 274.50908164 -209.8137207 272.73583984 C-182.86001637 255.6869862 -156.5323136 237.63434265 -130.4465332 219.29052734 C-128.93481653 218.23062855 -127.42309785 217.17073262 -125.91137695 216.11083984 C-104.07406732 200.77255373 -82.50377034 185.05192722 -61.36303711 168.76611328 C-59.5739757 167.38864995 -57.78233518 166.01463849 -55.98950195 164.64208984 C-49.27680864 159.49906619 -42.61105876 154.29897425 -35.9699707 149.06396484 C-33.66809012 147.24963095 -31.36092692 145.44244143 -29.0480957 143.64208984 C-16.79114192 134.0879966 -4.81141262 124.19763018 7.02026367 114.12255859 C10.34627009 111.29440722 13.7168708 108.53016963 17.1159668 105.79052734 C21.59631151 102.14902801 25.84259475 98.31568122 30.06445312 94.38305664 C33.37510718 91.31735768 36.78229291 88.42872075 40.3034668 85.60302734 C44.35293569 82.34369872 48.0380959 78.91695261 51.65893555 75.19287109 C54.17675659 72.66466728 56.83425521 70.33648315 59.55737305 68.03271484 C61.59473918 66.29826222 61.59473918 66.29826222 63.51831055 64.29833984 C66.99985928 60.8650502 69.34907669 58.83600419 74.3659668 58.66552734 C76.86552686 58.76285535 78.13380497 58.98127292 80.15319824 60.46939087 C82.109643 63.01386914 81.93184747 64.77789474 81.93823242 67.96777344 C81.94834351 69.13263275 81.95845459 70.29749207 81.96887207 71.49765015 C81.96585083 72.757034 81.96282959 74.01641785 81.9597168 75.31396484 C81.97627302 77.29020273 81.99284559 79.26644064 82.01038361 81.24267006 C82.03718824 84.71691358 82.04472445 88.19119909 82.0534668 91.66552734 C82.06389584 95.80250275 82.07770707 99.93924355 82.11437988 104.07608032 C82.13593216 106.65247932 82.14426239 109.22902979 82.13806152 111.80551147 C82.14817261 112.97667511 82.15828369 114.14783875 82.16870117 115.35449219 C82.17075562 116.38246918 82.17281006 117.41044617 82.17492676 118.46957397 C82.61739666 121.76694505 83.57463244 123.63388058 85.5534668 126.29052734 C88.36242742 127.94912334 88.36242742 127.94912334 91.5534668 128.29052734 C94.48224864 126.95926287 96.28651645 125.55747769 98.5534668 123.29052734 C98.86172071 121.41440561 98.86172071 121.41440561 98.82089233 119.24258423 C98.8294223 118.39578598 98.83795227 117.54898773 98.84674072 116.67652893 C98.84583435 115.74557907 98.84492798 114.81462921 98.84399414 113.85546875 C98.85071136 112.87649124 98.85742859 111.89751373 98.86434937 110.88887024 C98.8834084 107.63989236 98.88725761 104.3911202 98.8894043 101.14208984 C98.89582696 98.89008498 98.90255491 96.63808096 98.90957642 94.38607788 C98.92156915 89.65987208 98.92525521 84.93373948 98.92407227 80.20751953 C98.92386902 74.14539409 98.95116853 68.08373716 98.98561668 62.02172279 C99.0078332 57.3686405 99.01191141 52.71567187 99.01085281 48.06254196 C99.0132168 45.82737997 99.02208487 43.59221522 99.03751755 41.35710526 C99.05707014 38.23252645 99.05138129 35.10896957 99.03930664 31.984375 C99.05054565 31.0574736 99.06178467 30.1305722 99.07336426 29.17558289 C99.03690771 25.47108553 98.94060258 22.98895862 97.12698364 19.7170105 C93.13370736 17.5035642 89.38678949 17.73354591 84.89135742 17.77294922 C83.42245308 17.7624353 83.42245308 17.7624353 81.9238739 17.75170898 C78.68553344 17.73409786 75.44806621 17.74576319 72.2097168 17.75927734 C69.96056958 17.75658334 67.7114235 17.75270168 65.46228027 17.74768066 C60.7479341 17.74178137 56.03389103 17.75036273 51.31958008 17.76904297 C45.27315394 17.79183241 39.22743798 17.77871169 33.1810379 17.75475311 C28.53650551 17.74030699 23.89214181 17.74489575 19.24760437 17.75526428 C17.01804012 17.75793483 14.78846062 17.75465033 12.55891418 17.74534607 C9.44405481 17.73520033 6.33034947 17.75065473 3.21557617 17.77294922 C2.29181686 17.76485229 1.36805756 17.75675537 0.41630554 17.74841309 C-4.63284911 17.79376006 -4.63284911 17.79376006 -9.01916504 20.10412598 Z " fill="#2d61fb" transform="translate(395.446533203125,16.70947265625)"/>
<path d="M0 0 C1.52150414 -0.00430527 1.52150414 -0.00430527 3.07374573 -0.00869751 C5.21103476 -0.01073174 7.34834268 -0.00524691 9.4855957 0.00732422 C12.74017394 0.0233698 15.99350724 0.00746176 19.24804688 -0.01171875 C21.33203397 -0.00973588 23.41602029 -0.0058913 25.5 0 C26.46481796 -0.00607269 27.42963593 -0.01214539 28.4236908 -0.0184021 C36.20532511 0.06177736 42.92024137 1.40314858 48.93359375 6.80859375 C53.92789021 12.55062386 56.43531137 18.88472352 56.45062733 26.42576122 C56.45508517 27.44532664 56.45954301 28.46489205 56.46413594 29.51535338 C56.46395158 30.63371984 56.46376722 31.7520863 56.46357727 32.90434265 C56.46725396 34.09380755 56.47093065 35.28327244 56.47471875 36.50878173 C56.48383759 39.81164227 56.48845352 43.11445316 56.49110806 46.41732156 C56.49501479 49.97915503 56.50459282 53.54097416 56.51332092 57.10279846 C56.53307424 65.70487862 56.5431498 74.30695994 56.55204871 82.90905711 C56.5564332 86.96092077 56.56179957 91.01278313 56.56703758 95.06464577 C56.58404822 108.5353846 56.59854239 122.00612262 56.60578632 135.47687054 C56.60769618 138.97180368 56.60961652 142.46673681 56.61157227 145.96166992 C56.61205601 146.83030664 56.61253975 147.69894335 56.61303815 148.59390239 C56.62133847 162.6652368 56.64667614 176.73648621 56.67915294 190.80778351 C56.71223087 205.25742388 56.73023572 219.70702105 56.73343056 234.15669948 C56.73559491 242.26849281 56.74433257 250.38016215 56.76989174 258.49191856 C56.79160871 265.40017264 56.79964426 272.30827259 56.78992496 279.21655693 C56.78538318 282.7397588 56.78725887 286.26264276 56.8066864 289.78580093 C56.82759066 293.60987016 56.81732332 297.43350259 56.80415344 301.25761414 C56.81512269 302.36482699 56.82609193 303.47203984 56.83739358 304.61280459 C56.76797253 312.96676838 54.73402336 318.70090545 50.19140625 325.6484375 C43.0522241 332.47722043 35.53150128 334.15563702 25.90234375 334.02734375 C24.84786041 334.02975571 23.79337708 334.03216766 22.7069397 334.03465271 C20.49339002 334.03367942 18.27981441 334.02041085 16.06640625 333.99536133 C12.69316482 333.96095544 9.32253426 333.97475657 5.94921875 333.99414062 C3.78774936 333.98724358 1.62628666 333.97757247 -0.53515625 333.96484375 C-1.53431061 333.96980362 -2.53346497 333.97476349 -3.56289673 333.97987366 C-11.08170813 333.85428993 -16.44141395 332.22891193 -22.14453125 327.25 C-22.77617187 326.51523437 -23.4078125 325.78046875 -24.05859375 325.0234375 C-24.70570313 324.29382813 -25.3528125 323.56421875 -26.01953125 322.8125 C-30.36913803 316.50250706 -29.97359648 309.91760836 -29.95774841 302.54486084 C-29.96298509 301.342142 -29.96822177 300.13942317 -29.97361714 298.9002583 C-29.98601232 295.56958869 -29.98946099 292.23913036 -29.98902023 288.90845227 C-29.99067102 285.31322131 -30.00374241 281.71802855 -30.01521301 278.12281799 C-30.03804141 270.26531496 -30.04598122 262.40783897 -30.05103946 254.55030727 C-30.05429884 249.64182318 -30.06082275 244.73334691 -30.06804085 239.82486725 C-30.08760356 226.22794727 -30.10400983 212.63103454 -30.10691738 199.03409958 C-30.10710495 198.16438061 -30.10729252 197.29466163 -30.10748577 196.39858754 C-30.10785202 194.63554875 -30.10821572 192.87250996 -30.10857689 191.10947117 C-30.1087597 190.23432713 -30.10894251 189.35918309 -30.10913086 188.45751953 C-30.10931141 187.58130429 -30.10949196 186.70508904 -30.10967798 185.80232182 C-30.11321936 171.60566546 -30.14024093 157.4091608 -30.17762875 143.21255705 C-30.21572919 128.62837064 -30.23507498 114.04425948 -30.23537689 99.46002221 C-30.23596105 91.27498683 -30.24442641 83.09013246 -30.27337456 74.90514374 C-30.29791166 67.93545188 -30.30515568 60.96600707 -30.29012703 53.99628368 C-30.28296765 50.44250469 -30.28377265 46.8892133 -30.30653763 43.33548927 C-30.33101889 39.47676082 -30.3164645 35.61872425 -30.29832458 31.75994873 C-30.31152455 30.64534012 -30.32472452 29.5307315 -30.33832449 28.38234687 C-30.25199116 20.32812708 -28.48853656 13.54843762 -22.92818254 7.48383403 C-16.03086433 0.99829769 -9.13300341 -0.05736399 0 0 Z M-11.68359375 23.3984375 C-12.43913091 27.22750677 -12.35353678 31.01417736 -12.31178284 34.90638733 C-12.31887722 36.08390027 -12.32597161 37.26141321 -12.33328098 38.47460836 C-12.34783903 41.73957039 -12.33996462 45.00359049 -12.32255805 48.26851046 C-12.30919269 51.79072632 -12.32461801 55.31283201 -12.33638 58.83503723 C-12.35476675 65.73331718 -12.34623779 72.63131404 -12.32829178 79.52958519 C-12.31427173 85.13490634 -12.31037169 90.74015059 -12.31373405 96.34548759 C-12.3142115 97.14295929 -12.31468894 97.94043099 -12.31518085 98.76206849 C-12.31620717 100.38205392 -12.31726252 102.00203932 -12.31834661 103.62202471 C-12.32691562 117.9490009 -12.3102316 132.2758403 -12.28051758 146.6027832 C-12.25167426 160.5100682 -12.24459891 174.41715618 -12.26000977 188.32446289 C-12.27676342 203.46432034 -12.28081511 218.60408423 -12.26329941 233.74394411 C-12.26145499 235.35769712 -12.25962026 236.97145014 -12.25779533 238.58520317 C-12.25688324 239.37922914 -12.25597115 240.17325511 -12.25503143 240.99134247 C-12.24942123 246.59155027 -12.25273764 252.19171247 -12.25934029 257.7919178 C-12.26706449 264.61432223 -12.26035386 271.43653259 -12.23516525 278.25889785 C-12.22264938 281.74095826 -12.21654862 285.2227162 -12.22770691 288.70478821 C-12.23635014 292.47600403 -12.22053093 296.24633017 -12.19825745 300.01747131 C-12.20649821 301.12300246 -12.21473898 302.2285336 -12.22322947 303.36756569 C-12.21218178 304.37566432 -12.20113409 305.38376294 -12.18975163 306.42241001 C-12.18856014 307.29305641 -12.18736866 308.1637028 -12.18614107 309.06073242 C-11.51505702 312.18242169 -10.11522422 313.40076146 -7.68359375 315.3984375 C-5.67166101 315.98597957 -5.67166101 315.98597957 -3.52929688 315.90014648 C-2.72165894 315.90952744 -1.914021 315.91890839 -1.08190918 315.92857361 C-0.21827759 315.91733963 0.645354 315.90610565 1.53515625 315.89453125 C2.43004761 315.89598648 3.32493896 315.89744171 4.24694824 315.89894104 C6.13650777 315.89728313 8.02608095 315.88573394 9.91552734 315.86499023 C12.80624811 315.83603924 15.69513416 315.84438251 18.5859375 315.85742188 C20.42318599 315.85118411 22.26042869 315.84279286 24.09765625 315.83203125 C25.39310364 315.83643471 25.39310364 315.83643471 26.71472168 315.84092712 C30.25751364 315.78528661 32.66869598 315.74361876 35.83007812 314.05883789 C38.44038772 311.14282022 38.44243554 308.32518066 38.44783401 304.59230995 C38.45359573 303.09882387 38.45359573 303.09882387 38.45947385 301.57516634 C38.45860737 300.4783952 38.45774088 299.38162406 38.45684814 298.25161743 C38.45981927 297.08876956 38.46279039 295.9259217 38.46585155 294.72783601 C38.47303882 291.49481009 38.4757114 288.26181651 38.47644901 285.0287838 C38.47829864 281.5440397 38.48584546 278.05930714 38.49258423 274.5745697 C38.50617124 266.95275547 38.51219269 259.3309465 38.51659489 251.70912218 C38.51935639 246.95162246 38.52359354 242.19412478 38.52809906 237.43662643 C38.54029163 224.26873464 38.55059134 211.10084448 38.55397415 197.93294716 C38.55419372 197.09004113 38.55441328 196.24713509 38.5546395 195.37868645 C38.55485778 194.53374787 38.55507606 193.68880929 38.55530095 192.81826651 C38.55574442 191.10605788 38.55619098 189.39384925 38.55664062 187.68164062 C38.55697277 186.4076649 38.55697277 186.4076649 38.55731162 185.10795228 C38.561261 171.3410283 38.57871931 157.57415721 38.60200015 143.80725367 C38.62570026 129.6785874 38.63817537 115.54994767 38.63934207 101.42126119 C38.64025953 93.4862215 38.64602962 85.55125074 38.66416168 77.61623001 C38.67954453 70.86046609 38.68469387 64.1047924 38.67642358 57.3490143 C38.67251075 53.90130236 38.6734773 50.45377223 38.68748093 47.00608253 C38.70011043 43.2703051 38.69437233 39.5349984 38.68389893 35.79922485 C38.69195533 34.70691516 38.70001173 33.61460546 38.70831227 32.48919547 C38.74765209 25.41990693 38.74765209 25.41990693 35.31640625 19.3984375 C30.18459509 16.83253192 22.06362458 18.08499838 16.3503418 18.04833984 C14.45796406 18.03178418 12.56564875 18.00449915 10.67358398 17.96630859 C7.94351811 17.91149278 5.21491735 17.88965932 2.484375 17.875 C1.64150436 17.85233063 0.79863373 17.82966125 -0.06977844 17.80630493 C-1.260774 17.81057999 -1.260774 17.81057999 -2.47583008 17.81494141 C-3.51602043 17.80281113 -3.51602043 17.80281113 -4.57722473 17.79043579 C-8.14436197 18.82008706 -9.44224397 20.43687994 -11.68359375 23.3984375 Z " fill="#2d61fb" transform="translate(447.68359375,178.6015625)"/>
<path d="M0 0 C0.6712088 0.00304138 1.3424176 0.00608276 2.03396606 0.00921631 C13.33071516 0.08452462 23.9431715 1.0669392 34.75 4.4375 C35.78568115 4.75895996 35.78568115 4.75895996 36.84228516 5.08691406 C67.99394981 15.1179399 92.62972408 36.67446084 107.82714844 65.60058594 C121.20387547 92.2266426 124.62170158 125.85770427 115.75 154.4375 C115.54101074 155.12263672 115.33202148 155.80777344 115.11669922 156.51367188 C105.37177548 187.37624683 83.1080759 212.67115003 54.63500977 227.66992188 C46.98266577 231.49167962 38.97309434 234.14047342 30.75 236.4375 C29.53570312 236.77910156 28.32140625 237.12070313 27.0703125 237.47265625 C-4.18326214 244.69794501 -37.36715104 238.38030429 -64.37890625 221.640625 C-87.27149397 206.92054772 -104.78446294 185.23893637 -113.5625 159.4375 C-113.90812988 158.42574707 -113.90812988 158.42574707 -114.26074219 157.39355469 C-118.217862 145.01084938 -119.76664684 132.96028134 -119.625 120 C-119.62001495 119.32296021 -119.61502991 118.64592041 -119.6098938 117.94836426 C-119.31842066 84.11356455 -105.85242328 55.40462029 -81.98999023 31.75756836 C-76.1936366 26.18798116 -70.15311814 21.59738614 -63.25 17.4375 C-62.67846191 17.09138672 -62.10692383 16.74527344 -61.51806641 16.38867188 C-54.38960426 12.14092982 -47.10853224 8.79356842 -39.25 6.125 C-38.57557861 5.89466064 -37.90115723 5.66432129 -37.20629883 5.42700195 C-24.91466177 1.4980036 -12.86751995 -0.10219398 0 0 Z M-77.72021484 53.65332031 C-97.19054127 76.36145078 -103.0149662 104.26702112 -101.25 133.4375 C-98.25262406 159.62130807 -82.91527815 184.55847274 -62.50244141 200.83056641 C-39.48308645 218.07786663 -11.30862833 224.58500969 17.1640625 220.9765625 C36.58257393 217.44214393 54.13631939 208.63837765 68.75 195.4375 C69.60335937 194.66664063 70.45671875 193.89578125 71.3359375 193.1015625 C89.24114988 176.0778375 101.14504274 151.32664124 102.0859375 126.52734375 C102.49549839 98.58268885 95.4533528 72.06909979 75.68774414 51.43725586 C74.3792544 50.09998803 73.06484097 48.76852362 71.75 47.4375 C71.18023437 46.79554687 70.61046875 46.15359375 70.0234375 45.4921875 C56.11469612 30.15690855 31.32265082 19.51380074 10.86010742 18.26049805 C-24.17564869 17.5459474 -53.59161288 27.15129127 -77.72021484 53.65332031 Z " fill="#2d61fb" transform="translate(119.25,-0.4375)"/>
<path d="M0 0 C0.79141891 -0.0033284 1.58283783 -0.0066568 2.39823914 -0.01008606 C4.06651228 -0.01512852 5.73479542 -0.01749522 7.40307617 -0.01733398 C9.9309994 -0.01951553 12.45848221 -0.03768609 14.98632812 -0.05664062 C16.61588394 -0.05957626 18.24544181 -0.06155992 19.875 -0.0625 C20.61905594 -0.06968552 21.36311188 -0.07687103 22.12971497 -0.08427429 C31.55959646 -0.04401986 39.43034176 1.85714153 46.63671875 8.16796875 C53.19502152 15.74751574 53.94180501 25.07127419 53.89068604 34.73156738 C53.89380602 35.6517064 53.896926 36.57184541 53.90014052 37.51986742 C53.90807075 40.58036884 53.90181636 43.64066924 53.89550781 46.70117188 C53.89821988 48.90461848 53.90178203 51.10806419 53.90612793 53.31150818 C53.91522846 59.28042013 53.91171728 65.24926276 53.90536976 71.21817589 C53.90029769 77.47199054 53.90500457 83.72579936 53.90814209 89.97961426 C53.91201095 101.15288299 53.90580508 112.32612634 53.89562342 123.49938899 C53.88668869 133.61728402 53.88824098 143.73513314 53.89746094 153.85302734 C53.90817896 165.62028747 53.91214001 177.38752526 53.90623641 189.1547904 C53.90312226 195.37733913 53.90269214 201.59985627 53.90930939 207.82240295 C53.91509684 213.67307232 53.91106026 219.52365521 53.89952087 225.37431526 C53.89688179 227.5184674 53.89762652 229.66262684 53.9020462 231.80677605 C53.90753273 234.73940487 53.90062985 237.67175868 53.89068604 240.60437012 C53.89514748 241.44747883 53.89960892 242.29058755 53.90420556 243.15924501 C53.84351378 252.42370412 52.57979288 260.25598314 45.7734375 267.01953125 C40.78358514 271.58651476 36.68680583 274.38509783 29.72973633 274.47436523 C28.30719292 274.49834633 28.30719292 274.49834633 26.85591125 274.52281189 C25.33395393 274.53085594 25.33395393 274.53085594 23.78125 274.5390625 C22.72443527 274.54809097 21.66762054 274.55711945 20.57878113 274.56642151 C18.34380926 274.58091258 16.10879508 274.5898079 13.8737793 274.59350586 C10.47826269 274.60536729 7.08458463 274.65453699 3.68945312 274.70507812 C1.51172756 274.71454724 -0.6660091 274.72177993 -2.84375 274.7265625 C-3.84826706 274.74609482 -4.85278412 274.76562714 -5.88774109 274.78575134 C-13.6853937 274.73659578 -20.64021484 272.91727918 -26.28117371 267.23655701 C-32.32744234 260.00069326 -33.81585971 251.64305142 -33.74423218 242.45251465 C-33.74891215 241.51604143 -33.75359212 240.5795682 -33.75841391 239.61471701 C-33.77031246 236.49885695 -33.76092675 233.3834409 -33.75146484 230.26757812 C-33.75553282 228.02472173 -33.76087597 225.78186734 -33.76739502 223.53901672 C-33.78104741 217.46264271 -33.77577846 211.38642186 -33.76625776 205.31004524 C-33.75865046 198.94411946 -33.76570976 192.57820659 -33.77041626 186.21228027 C-33.77621982 174.83859389 -33.76691014 163.46498511 -33.75163825 152.09131426 C-33.7382361 141.79147325 -33.74056452 131.4917337 -33.75439453 121.19189453 C-33.77047079 109.21367365 -33.77641358 97.23551433 -33.76755774 85.25727892 C-33.76288614 78.92293392 -33.76224232 72.58865872 -33.77216721 66.25431824 C-33.78084747 60.2985509 -33.77479536 54.34297474 -33.75748444 48.38722801 C-33.75352529 46.20437627 -33.75464381 44.02150837 -33.76127243 41.8386631 C-33.7695005 38.85336746 -33.75915083 35.86868001 -33.74423218 32.88342285 C-33.75092434 32.02475034 -33.75761651 31.16607783 -33.76451147 30.28138494 C-33.68381504 21.925579 -31.49241417 14.53020838 -26.234375 7.9609375 C-18.88744324 0.92076698 -9.71915375 0.01441846 0 0 Z M-13.36328125 21.16796875 C-15.05145647 23.89961997 -15.61368625 25.9700979 -15.61775684 29.16010189 C-15.62358904 29.94874659 -15.62942123 30.7373913 -15.63543016 31.54993433 C-15.63165083 32.41033573 -15.62787151 33.27073713 -15.62397766 34.1572113 C-15.62780321 35.07590046 -15.63162876 35.99458961 -15.63557023 36.94111782 C-15.64590773 40.02647687 -15.64190664 43.11165008 -15.63793945 46.19702148 C-15.6422855 48.40622124 -15.64746828 50.61541948 -15.65342712 52.82461548 C-15.66683964 58.83073807 -15.6673933 64.83679781 -15.66486382 70.84293246 C-15.66379568 75.85308881 -15.66867344 80.86323236 -15.67346925 85.87338597 C-15.68520734 98.36682279 -15.68433488 110.86022904 -15.67791244 123.35366601 C-15.67274288 134.20413439 -15.68399932 145.05451299 -15.70301066 155.90496361 C-15.72238136 167.04591111 -15.73035486 178.18682589 -15.7268874 189.3277927 C-15.7250718 195.58272595 -15.72773835 201.83757698 -15.74160194 208.09249687 C-15.75414855 213.97348525 -15.75226618 219.85429357 -15.73919106 225.73527908 C-15.73681884 227.89562223 -15.73958291 230.05597792 -15.74781418 232.21630669 C-15.7582287 235.1616628 -15.75022347 238.10640876 -15.73750305 241.05174255 C-15.74487734 241.90991323 -15.75225162 242.76808391 -15.75984937 243.65225977 C-15.71746349 248.30607663 -15.39737007 251.39293406 -12.36328125 255.16796875 C-8.96147376 256.86887249 -5.08415565 256.37460191 -1.33984375 256.40625 C-0.4421225 256.41432175 0.45559875 256.42239349 1.38052368 256.43070984 C3.2819831 256.44455166 5.18346739 256.45527338 7.08496094 256.46313477 C9.99331659 256.48035976 12.90053907 256.52424566 15.80859375 256.56835938 C17.65493955 256.5784852 19.50129502 256.58700165 21.34765625 256.59375 C22.21756195 256.61125809 23.08746765 256.62876617 23.98373413 256.64680481 C28.89157273 256.64363799 28.89157273 256.64363799 33.15478516 254.39135742 C36.24618086 249.75324528 35.78033754 244.73480006 35.77043152 239.33058167 C35.77382985 237.97704925 35.77382985 237.97704925 35.77729684 236.59617275 C35.78363769 233.56613674 35.78280742 230.53614544 35.78198242 227.50610352 C35.78497383 225.33631329 35.78837632 223.1665236 35.79216003 220.99673462 C35.8010054 215.09806071 35.80333836 209.1994013 35.80397582 203.30072141 C35.80492451 198.38004049 35.80860229 193.45936297 35.81214792 188.53868335 C35.82029427 176.9322813 35.82273196 165.32588701 35.82202148 153.71948242 C35.82142042 141.73729713 35.83197763 129.75517354 35.84776515 117.77299839 C35.86082885 107.49266776 35.86620588 97.21235185 35.86556607 86.93201298 C35.86531077 80.78887822 35.86817981 74.64578344 35.87874413 68.50265694 C35.88840559 62.72676363 35.8885177 56.95094867 35.88122749 51.17505264 C35.88017927 49.05341032 35.88255858 46.93176318 35.88858795 44.81012917 C35.89627712 41.91743968 35.89168345 39.02502287 35.88395691 36.13233948 C35.88910047 35.28973259 35.89424404 34.4471257 35.89954346 33.57898527 C35.86964483 28.52532016 35.49515907 24.53325643 32.26171875 20.41796875 C28.44317449 17.48062701 23.63392388 17.99269019 19.01953125 17.96484375 C18.28475555 17.95914368 17.54997986 17.9534436 16.79293823 17.9475708 C15.24136789 17.93814502 13.68977776 17.93159646 12.13818359 17.92773438 C9.77665972 17.91803015 7.41600733 17.88698584 5.0546875 17.85546875 C3.54297389 17.84893763 2.03125409 17.84368759 0.51953125 17.83984375 C-0.5307576 17.82132355 -0.5307576 17.82132355 -1.6022644 17.8024292 C-6.25257213 17.82334207 -9.46804815 18.60871896 -13.36328125 21.16796875 Z " fill="#2d61fb" transform="translate(348.36328125,237.83203125)"/>
<path d="M0 0 C1.02754395 -0.00478363 2.05508789 -0.00956726 3.11376953 -0.01449585 C5.2718256 -0.01787652 7.42993419 -0.00880363 9.58789062 0.01220703 C12.86706118 0.03899764 16.14280929 0.01239494 19.421875 -0.01953125 C21.53125746 -0.01622683 23.64063781 -0.00981993 25.75 0 C26.71695801 -0.01012115 27.68391602 -0.02024231 28.68017578 -0.03067017 C36.37413224 0.10000619 42.9818798 2.16343586 48.79443359 7.38998413 C56.76615754 15.72148052 56.31368088 25.74567412 56.27905273 36.56005859 C56.2847615 38.17061332 56.29172772 39.78116401 56.29985046 41.39170837 C56.31774224 45.74926383 56.31662087 50.10661748 56.31090808 54.46419859 C56.30781009 58.1096486 56.31391555 61.75506018 56.31994683 65.40050471 C56.33397772 74.0049916 56.33244306 82.60937917 56.32104492 91.21386719 C56.30956827 100.07305807 56.32363499 108.93194607 56.3504414 117.79109704 C56.37263685 125.41345384 56.37922703 133.03571583 56.37336498 140.65810263 C56.37000301 145.20346115 56.37235963 149.7486256 56.38961601 154.29395676 C56.40514426 158.57049068 56.40106488 162.84657791 56.38231087 167.12309456 C56.37864102 168.6863058 56.38168634 170.24955057 56.39219666 171.81273079 C56.45182263 181.41942236 56.16031823 190.23010227 49.98046875 198.06640625 C49.34753906 198.57300781 48.71460938 199.07960938 48.0625 199.6015625 C47.43730469 200.12621094 46.81210937 200.65085937 46.16796875 201.19140625 C39.42572398 205.52160434 33.92012232 206.13119756 26.04296875 206.1328125 C25.01117996 206.14042603 23.97939117 206.14803955 22.91633606 206.15588379 C20.74039113 206.16665391 18.56439464 206.16955051 16.38842773 206.16503906 C13.08293088 206.1640685 9.77977065 206.20569159 6.47460938 206.25 C4.35156729 206.25520916 2.22851722 206.25789516 0.10546875 206.2578125 C-0.87090042 206.27420776 -1.84726959 206.29060303 -2.85322571 206.30749512 C-10.59033792 206.23071027 -17.2353076 204.22229675 -23.04402161 198.90856934 C-28.34112899 193.25903119 -30.49875725 187.2525614 -30.50595093 179.57411194 C-30.5106309 178.8959058 -30.51531087 178.21769966 -30.52013266 177.51894182 C-30.53201977 175.26510957 -30.52265061 173.0118925 -30.51318359 170.75805664 C-30.51725215 169.1345535 -30.52259562 167.51105313 -30.52911377 165.88755798 C-30.54276056 161.49081196 -30.53749936 157.09427773 -30.52797651 152.69752812 C-30.52036494 148.08882798 -30.5274298 143.48014559 -30.53213501 138.8714447 C-30.53758875 131.13179276 -30.53041154 123.39222677 -30.51611328 115.65258789 C-30.49979327 106.71560111 -30.50507209 97.77881973 -30.5215925 88.84183794 C-30.53522513 81.15839035 -30.53711817 73.47500445 -30.52927649 65.79154867 C-30.524609 61.20715466 -30.52394954 56.62285706 -30.53388596 52.03846931 C-30.54257903 47.72671884 -30.53649113 43.41523202 -30.51920319 39.1035099 C-30.51525056 37.52495002 -30.51635133 35.94636779 -30.52299118 34.36781693 C-30.56189853 24.17493757 -30.48160853 15.16280673 -23.04443359 7.38998413 C-16.27984064 1.30737865 -8.81522403 -0.092269 0 0 Z M-12.125 23.6640625 C-12.8705973 26.79857689 -12.8705973 26.79857689 -12.75991821 30.26794434 C-12.76771817 30.91797346 -12.77551812 31.56800258 -12.78355443 32.23772955 C-12.80344411 34.40841779 -12.78772462 36.57734673 -12.77197266 38.74804688 C-12.77875024 40.30716472 -12.78765416 41.86627457 -12.79852295 43.42536926 C-12.82130661 47.65481273 -12.81248409 51.883646 -12.79662752 56.11310005 C-12.78396358 60.54038251 -12.79571 64.96761293 -12.80355835 69.39489746 C-12.81265349 76.82960383 -12.80067063 84.26406181 -12.77685547 91.69873047 C-12.74964434 100.29277308 -12.75845861 108.8862226 -12.7859875 117.48025084 C-12.8086815 124.86046279 -12.81187726 132.24049626 -12.79879415 139.62073183 C-12.7910012 144.02794904 -12.78995364 148.43488752 -12.80647659 152.84208679 C-12.82092647 156.98572726 -12.81089095 161.12860353 -12.78200531 165.27216148 C-12.77539715 166.79230671 -12.77728769 168.31251631 -12.78831863 169.83263588 C-12.80199855 171.90935043 -12.78483566 173.98362161 -12.75991821 176.06018066 C-12.75803308 177.22159828 -12.75614796 178.3830159 -12.7542057 179.57962799 C-11.93502014 183.59536434 -10.24709078 185.10085993 -7.125 187.6640625 C-5.07156334 188.3975127 -5.07156334 188.3975127 -2.96484375 188.31103516 C-1.7883728 188.33467636 -1.7883728 188.33467636 -0.58813477 188.35879517 C0.24532471 188.34867401 1.07878418 188.33855286 1.9375 188.328125 C3.24086304 188.33530045 3.24086304 188.33530045 4.57055664 188.34262085 C6.40285051 188.34601475 8.23520535 188.33684794 10.06738281 188.31591797 C12.86661219 188.28914273 15.66183233 188.31568053 18.4609375 188.34765625 C20.24480049 188.34435206 22.02866099 188.33794563 23.8125 188.328125 C24.64595947 188.33824615 25.47941895 188.34836731 26.33813477 188.35879517 C27.51460571 188.33515396 27.51460571 188.33515396 28.71484375 188.31103516 C29.39925537 188.30705719 30.08366699 188.30307922 30.78881836 188.29898071 C34.121008 187.28484664 35.66494528 185.29952955 37.875 182.6640625 C38.6205973 179.52954811 38.6205973 179.52954811 38.50991821 176.06018066 C38.51771817 175.41015154 38.52551812 174.76012242 38.53355443 174.09039545 C38.55344411 171.91970721 38.53772462 169.75077827 38.52197266 167.58007812 C38.52875024 166.02096028 38.53765416 164.46185043 38.54852295 162.90275574 C38.57130661 158.67331227 38.56248409 154.444479 38.54662752 150.21502495 C38.53396358 145.78774249 38.54571 141.36051207 38.55355835 136.93322754 C38.56265349 129.49852117 38.55067063 122.06406319 38.52685547 114.62939453 C38.49964434 106.03535192 38.50845861 97.4419024 38.5359875 88.84787416 C38.5586815 81.46766221 38.56187726 74.08762874 38.54879415 66.70739317 C38.5410012 62.30017596 38.53995364 57.89323748 38.55647659 53.48603821 C38.57092647 49.34239774 38.56089095 45.19952147 38.53200531 41.05596352 C38.52539715 39.53581829 38.52728769 38.01560869 38.53831863 36.49548912 C38.55199855 34.41877457 38.53483566 32.34450339 38.50991821 30.26794434 C38.50803308 29.10652672 38.50614796 27.9451091 38.5042057 26.74849701 C37.68502014 22.73276066 35.99709078 21.22726507 32.875 18.6640625 C30.82156334 17.9306123 30.82156334 17.9306123 28.71484375 18.01708984 C27.93052979 18.00132904 27.14621582 17.98556824 26.33813477 17.96932983 C25.08794556 17.98451157 25.08794556 17.98451157 23.8125 18 C22.94359131 17.99521637 22.07468262 17.99043274 21.17944336 17.98550415 C19.34714949 17.98211025 17.51479465 17.99127706 15.68261719 18.01220703 C12.88338781 18.03898227 10.08816767 18.01244447 7.2890625 17.98046875 C5.50519951 17.98377294 3.72133901 17.99017937 1.9375 18 C1.10404053 17.98987885 0.27058105 17.97975769 -0.58813477 17.96932983 C-1.37244873 17.98509064 -2.1567627 18.00085144 -2.96484375 18.01708984 C-3.64925537 18.02106781 -4.33366699 18.02504578 -5.03881836 18.02914429 C-8.371008 19.04327836 -9.91494528 21.02859545 -12.125 23.6640625 Z " fill="#2d61fb" transform="translate(243.125,306.3359375)"/>
<path d="M0 0 C2.1640625 0.3515625 2.1640625 0.3515625 4.7265625 2.0390625 C6.39707708 4.72641205 6.50944454 6.24312415 6.1640625 9.3515625 C7.2984375 9.5784375 8.4328125 9.8053125 9.6015625 10.0390625 C19.96357573 12.67068491 28.84658015 19.24781006 34.4765625 28.2890625 C38.89793148 36.2787646 41.75587744 44.02404437 41.1640625 53.3515625 C39.75184628 56.18002984 38.39649323 58.11913177 36.1640625 60.3515625 C29.28940954 61.02775787 29.28940954 61.02775787 25.4921875 58.74609375 C22.56332966 55.73369467 22.31170198 53.78725462 21.7265625 49.6640625 C20.52892835 43.23430599 18.89630177 38.02513765 14.1640625 33.3515625 C11.8540625 32.0315625 9.5440625 30.7115625 7.1640625 29.3515625 C7.1640625 45.1915625 7.1640625 61.0315625 7.1640625 77.3515625 C10.7940625 78.6715625 14.4240625 79.9915625 18.1640625 81.3515625 C29.54362706 87.64605594 36.2726364 97.09998474 40.1640625 109.3515625 C42.78799591 120.06595724 41.00175327 131.36274849 35.9140625 141.1015625 C29.15757218 152.18862228 20.56044411 158.54391573 8 161.90625 C7.39414063 162.05320313 6.78828125 162.20015625 6.1640625 162.3515625 C6.20660156 163.12886719 6.24914062 163.90617188 6.29296875 164.70703125 C6.1640625 167.3515625 6.1640625 167.3515625 4.1015625 169.6640625 C0.41218378 171.78349283 -1.63818636 171.95124123 -5.8359375 171.3515625 C-8.97233941 169.46972135 -10.50861452 168.3215196 -11.6875 164.828125 C-12.60445963 162.2154182 -12.60445963 162.2154182 -14.90234375 161.19921875 C-16.13791016 160.81056641 -16.13791016 160.81056641 -17.3984375 160.4140625 C-28.47644964 156.40746157 -36.53452843 149.58916131 -41.6484375 138.9140625 C-44.706411 131.64131631 -47.76345597 122.8375766 -45.0234375 115.0390625 C-43.33705847 112.64262914 -41.60201751 111.48559123 -38.71484375 110.98046875 C-37.95042969 110.95855469 -37.18601562 110.93664062 -36.3984375 110.9140625 C-35.25568359 110.85412109 -35.25568359 110.85412109 -34.08984375 110.79296875 C-30.66360521 111.64210586 -29.6811342 113.41765971 -27.8359375 116.3515625 C-27 119.3671875 -27 119.3671875 -26.4609375 122.6015625 C-25.16548479 128.75148046 -23.32796881 133.83168803 -18.8359375 138.3515625 C-15.3709375 140.3315625 -15.3709375 140.3315625 -11.8359375 142.3515625 C-11.8359375 126.1815625 -11.8359375 110.0115625 -11.8359375 93.3515625 C-15.3009375 92.8565625 -15.3009375 92.8565625 -18.8359375 92.3515625 C-31.4171475 86.51358547 -39.31718869 77.49730618 -44.08984375 64.625 C-47.73327738 53.52301901 -45.85816767 41.77875944 -41.2109375 31.2265625 C-35.07510802 20.00876738 -25.82527705 13.36670588 -13.9375 9.5390625 C-11.12644879 7.95066181 -10.88303376 6.33806313 -9.8359375 3.3515625 C-7.03736721 -0.35552916 -4.39326517 -0.15741341 0 0 Z M-19.8359375 33.3515625 C-24.85892128 39.48813231 -28.25175589 45.67678665 -27.7109375 53.7890625 C-26.45993247 62.32789919 -22.19408016 67.74053001 -15.6484375 73.1640625 C-13.91826162 74.53423792 -13.91826162 74.53423792 -11.8359375 74.3515625 C-11.8359375 59.5015625 -11.8359375 44.6515625 -11.8359375 29.3515625 C-15.17546834 29.3515625 -17.42471547 31.22468269 -19.8359375 33.3515625 Z M6.1640625 96.3515625 C6.1640625 111.8615625 6.1640625 127.3715625 6.1640625 143.3515625 C15.01406522 138.92656114 18.83301078 135.68854517 22.1640625 126.5390625 C23.95545438 119.65969367 22.67977747 113.38299244 19.5390625 107.1015625 C15.76642471 102.73324506 11.72550146 98.20537549 6.1640625 96.3515625 Z " fill="#2d61fb" transform="translate(121.8359375,33.6484375)"/>
<path d="M0 0 C0.78717407 -0.00191345 1.57434814 -0.0038269 2.38537598 -0.00579834 C4.0357292 -0.00714834 5.68609348 -0.0035356 7.33642578 0.00488281 C9.83781173 0.01559956 12.33847968 0.00494706 14.83984375 -0.0078125 C16.45573072 -0.00649069 18.07161726 -0.00392787 19.6875 0 C20.42214478 -0.00404846 21.15678955 -0.00809692 21.91369629 -0.01226807 C31.19379625 0.07001258 39.36051301 1.85886536 46.34375 8.265625 C52.50617989 16.34008764 53.49279069 23.09327262 53.50488281 32.96191406 C53.51233017 34.41899025 53.51233017 34.41899025 53.51992798 35.90550232 C53.53451384 39.11409213 53.54134585 42.3226325 53.546875 45.53125 C53.55262962 47.76698813 53.55838731 50.00272624 53.56414795 52.23846436 C53.57464792 56.92574289 53.58049709 61.61300433 53.58398438 66.30029297 C53.58946538 72.29336466 53.61348944 78.28620875 53.64195633 84.27920914 C53.66062132 88.89815929 53.66579038 93.51705506 53.66732025 98.13603973 C53.67033883 100.34473667 53.6783404 102.55343283 53.69150543 104.76209259 C53.70864563 107.85882158 53.70666605 110.95500005 53.70019531 114.05175781 C53.7094101 114.9559697 53.71862488 115.86018158 53.7281189 116.79179382 C53.66646811 126.25641569 51.09979063 134.46438933 44.34375 141.265625 C37.42450487 145.95423431 31.14062233 147.00392895 22.9296875 146.89453125 C21.87520416 146.89694321 20.82072083 146.89935516 19.73428345 146.90184021 C17.52073377 146.90086692 15.30715816 146.88759835 13.09375 146.86254883 C9.72050857 146.82814294 6.34987801 146.84194407 2.9765625 146.86132812 C0.81509311 146.85443108 -1.34636959 146.84475997 -3.5078125 146.83203125 C-4.50696686 146.83699112 -5.50612122 146.84195099 -6.53555298 146.84706116 C-14.47139504 146.71451193 -20.80103808 144.73115735 -26.46875 138.953125 C-33.46965703 131.48974347 -33.80659122 122.58526699 -33.80151367 112.82299805 C-33.80487228 111.89048218 -33.8082309 110.95796631 -33.81169128 109.99719238 C-33.821166 106.92389584 -33.82314268 103.85065398 -33.82421875 100.77734375 C-33.82743385 98.63271564 -33.83079811 96.48808774 -33.83430481 94.34346008 C-33.84028745 89.85046887 -33.84214561 85.35749687 -33.84155273 80.86450195 C-33.84145119 75.12149124 -33.85509989 69.37860437 -33.87232494 63.63562298 C-33.88347114 59.20625752 -33.88547113 54.77692176 -33.88494301 50.34754372 C-33.88611931 48.23096096 -33.89052134 46.11437734 -33.89827538 43.99780846 C-33.90812773 41.0305972 -33.9051765 38.06365153 -33.89916992 35.09643555 C-33.90478943 34.23119766 -33.91040894 33.36595978 -33.91619873 32.47450256 C-33.86647686 22.7556383 -32.18584962 14.72181969 -25.65625 7.265625 C-18.36510515 0.95686598 -9.33450564 -0.05144036 0 0 Z M-13.40625 21.640625 C-16.57240456 25.75662593 -15.80415846 31.23218019 -15.80151367 36.17749023 C-15.80487228 37.07712494 -15.8082309 37.97675964 -15.81169128 38.90365601 C-15.82118932 41.87719097 -15.82314374 44.85066956 -15.82421875 47.82421875 C-15.82743183 49.89160689 -15.83079595 51.95899479 -15.83430481 54.02638245 C-15.840293 58.35979744 -15.842145 62.69319249 -15.84155273 67.02661133 C-15.84145106 72.57950487 -15.85510988 78.13227068 -15.87232494 83.68513393 C-15.88344201 87.95478401 -15.88547204 92.22440317 -15.88494301 96.49406624 C-15.88612331 98.54138695 -15.8905479 100.58870847 -15.89827538 102.63601494 C-15.90807039 105.49888953 -15.90519922 108.36148619 -15.89916992 111.22436523 C-15.90478943 112.06972336 -15.91040894 112.91508148 -15.91619873 113.78605652 C-15.88864021 118.93450462 -15.52211268 122.83584424 -12.28379822 127.0528717 C-10.25554862 128.56420412 -9.12941709 128.6505372 -6.61547852 128.66967773 C-5.80776505 128.68236191 -5.00005157 128.69504608 -4.16786194 128.70811462 C-3.29906906 128.70517899 -2.43027618 128.70224335 -1.53515625 128.69921875 C-0.63884995 128.7044606 0.25745636 128.70970245 1.18092346 128.71510315 C3.07641565 128.7215261 4.97194769 128.72018281 6.86743164 128.71166992 C9.76716176 128.70316631 12.66491803 128.73190627 15.56445312 128.76367188 C17.40624941 128.76528414 19.24804918 128.76470587 21.08984375 128.76171875 C21.9566124 128.77295273 22.82338104 128.78418671 23.71641541 128.79576111 C28.65168269 128.76637966 28.65168269 128.76637966 32.85961914 126.35961914 C35.87569694 122.10416606 35.49854377 118.27174924 35.50488281 113.21362305 C35.50984772 112.27526611 35.51481262 111.33690918 35.51992798 110.37011719 C35.53457139 107.255852 35.54135547 104.14163776 35.546875 101.02734375 C35.55262495 98.86741636 35.5583827 96.70748899 35.56414795 94.54756165 C35.57466434 90.01388307 35.58050273 85.48022226 35.58398438 80.9465332 C35.5894684 75.13570153 35.61349191 69.32510428 35.64195633 63.51434612 C35.6605762 59.05082004 35.66578798 54.58735047 35.66732025 50.12378883 C35.67034911 47.98156262 35.67838545 45.83933745 35.69150543 43.69714928 C35.70855102 40.69985487 35.70668912 37.70313369 35.70019531 34.70581055 C35.7094101 33.81990738 35.71862488 32.93400421 35.7281189 32.02125549 C35.69596614 27.28619577 35.45139607 24.09576033 32.34375 20.265625 C28.30449874 17.88970017 24.16104182 17.97366838 19.59375 18 C18.85801758 17.99808655 18.12228516 17.9961731 17.36425781 17.99420166 C15.81444963 17.9928455 14.26462987 17.99650211 12.71484375 18.00488281 C10.35130135 18.01559079 7.98851894 18.00496859 5.625 17.9921875 C4.11458167 17.9935092 2.6041638 17.9960718 1.09375 18 C0.3915332 17.99595154 -0.31068359 17.99190308 -1.03417969 17.98773193 C-5.84503393 18.03339537 -9.57691687 18.63186326 -13.40625 21.640625 Z " fill="#2d61fb" transform="translate(143.65625,365.734375)"/>
<path d="M0 0 C1.02754395 -0.00478363 2.05508789 -0.00956726 3.11376953 -0.01449585 C5.2718256 -0.01787652 7.42993419 -0.00880363 9.58789062 0.01220703 C12.86706118 0.03899764 16.14280929 0.01239494 19.421875 -0.01953125 C21.53125746 -0.01622683 23.64063781 -0.00981993 25.75 0 C26.71695801 -0.01012115 27.68391602 -0.02024231 28.68017578 -0.03067017 C36.3663163 0.09987344 43.02405491 2.1425809 48.79443359 7.41928101 C55.8217489 14.91744791 56.33359528 22.39719726 56.30859375 32.28125 C56.3138356 33.49297882 56.31907745 34.70470764 56.32447815 35.95315552 C56.33088621 38.50994096 56.32957718 41.06675592 56.32104492 43.62353516 C56.31254358 47.51909341 56.34130282 51.41318046 56.37304688 55.30859375 C56.37465935 57.79947873 56.37408047 60.29036629 56.37109375 62.78125 C56.38232773 63.93777069 56.39356171 65.09429138 56.40513611 66.28585815 C56.3353372 74.45469048 55.08775132 80.89956855 49.69140625 87.22265625 C48.57572266 88.15271484 48.57572266 88.15271484 47.4375 89.1015625 C46.69628906 89.73964844 45.95507812 90.37773437 45.19140625 91.03515625 C41.26439496 93.79664648 37.74993573 94.90910134 32.96801758 94.97045898 C31.54547417 94.99444008 31.54547417 94.99444008 30.0941925 95.01890564 C29.07955429 95.02426834 28.06491608 95.02963104 27.01953125 95.03515625 C25.96271652 95.04418472 24.90590179 95.0532132 23.81706238 95.06251526 C21.58209051 95.07700633 19.34707633 95.08590165 17.11206055 95.08959961 C13.71654394 95.10146104 10.32286588 95.15063074 6.92773438 95.20117188 C4.75000881 95.21064099 2.57227215 95.21787368 0.39453125 95.22265625 C-0.60998581 95.24218857 -1.61450287 95.26172089 -2.64945984 95.28184509 C-10.49536821 95.23238533 -17.11152153 93.27667529 -23.04289246 87.93772888 C-30.05006408 80.62364301 -30.57719021 72.25176185 -30.5234375 62.60546875 C-30.52630768 61.46174301 -30.52917786 60.31801727 -30.53213501 59.13963318 C-30.53416903 56.73004662 -30.52868571 54.32044329 -30.51611328 51.91088867 C-30.50006596 48.24164536 -30.51597791 44.57350599 -30.53515625 40.90429688 C-30.53317341 38.55468509 -30.5293289 36.20507399 -30.5234375 33.85546875 C-30.52951019 32.76770645 -30.53558289 31.67994415 -30.5418396 30.55921936 C-30.46093361 21.7075961 -29.22309311 13.85663254 -22.96606445 7.22103882 C-16.04842675 1.37083728 -8.82604133 -0.09238222 0 0 Z M-11.125 21.6640625 C-12.06226743 24.47586478 -12.26113076 26.23528425 -12.28613281 29.14794922 C-12.29574036 30.05253876 -12.3053479 30.9571283 -12.31524658 31.88912964 C-12.31949646 32.86415436 -12.32374634 33.83917908 -12.328125 34.84375 C-12.33382507 35.84866486 -12.33952515 36.85357971 -12.34539795 37.88894653 C-12.35484577 40.01563464 -12.36138107 42.14233737 -12.36523438 44.26904297 C-12.37494148 47.51946583 -12.40596785 50.76925676 -12.4375 54.01953125 C-12.44403006 56.08593375 -12.44928052 58.15234076 -12.453125 60.21875 C-12.4654718 61.18972626 -12.4778186 62.16070251 -12.49053955 63.16110229 C-12.4742297 68.11146995 -12.45825632 71.69681799 -9.125 75.6640625 C-5.72319251 77.36496624 -1.8458744 76.87069566 1.8984375 76.90234375 C2.79615875 76.9104155 3.69388 76.91848724 4.61880493 76.92680359 C6.52026435 76.94064541 8.42174864 76.95136713 10.32324219 76.95922852 C13.23159784 76.97645351 16.13882032 77.02033941 19.046875 77.06445312 C20.8932208 77.07457895 22.73957627 77.0830954 24.5859375 77.08984375 C25.89079605 77.11610588 25.89079605 77.11610588 27.22201538 77.14289856 C30.79908727 77.13004381 33.22773779 77.00566794 36.42016602 75.32080078 C38.798994 70.97671517 38.46474408 66.60276867 38.44140625 61.73046875 C38.44760483 60.66038071 38.45380341 59.59029266 38.46018982 58.48777771 C38.46729039 56.22582916 38.46410991 53.96382837 38.45141602 51.7019043 C38.4375632 48.24234682 38.47160493 44.78550034 38.50976562 41.32617188 C38.51071694 39.1276035 38.50885734 36.92903175 38.50390625 34.73046875 C38.51716446 33.69700821 38.53042267 32.66354767 38.54408264 31.59877014 C38.48544437 27.07109016 38.33839531 24.40582796 35.90429688 20.50952148 C31.75772754 17.98341594 28.54811405 17.97681697 23.77734375 18.0703125 C22.4704232 18.07025208 22.4704232 18.07025208 21.13710022 18.07019043 C19.30055503 18.07553804 17.46400983 18.09308843 15.62768555 18.12207031 C12.81813627 18.16397843 10.01098149 18.16313257 7.20117188 18.15625 C5.41404586 18.16674137 3.62693218 18.17967919 1.83984375 18.1953125 C1.00122299 18.19551392 0.16260223 18.19571533 -0.70143127 18.19592285 C-6.5316413 18.28222954 -6.5316413 18.28222954 -11.125 21.6640625 Z " fill="#2d61fb" transform="translate(38.125,417.3359375)"/>
</svg>